<?xml version="1.0" encoding="utf-8"?>
<!-- Generator: Adobe Illustrator 24.2.0, SVG Export Plug-In . SVG Version: 6.00 Build 0)  -->
<svg version="1.1" xmlns="http://www.w3.org/2000/svg" xmlns:xlink="http://www.w3.org/1999/xlink" x="0px" y="0px"
	 viewBox="0 0 751.18 155.91" style="enable-background:new 0 0 751.18 155.91;" xml:space="preserve">
<g id="Layer_1">
</g>
<g id="dein_unikino">
</g>
<g id="gegenlicht">
	<g>
		<path d="M173.9,11.3v36.25c0,4.72,1.39,8.2,4.17,10.42c2.78,2.22,6.25,3.33,10.42,3.33c4.17,0,7.64-1.11,10.42-3.33
			c2.78-2.22,4.17-5.69,4.17-10.42V11.3h12.5v39.59c0,6.39-2.57,11.81-7.71,16.25c-5.14,4.45-11.6,6.67-19.38,6.67
			c-7.78,0-14.24-2.22-19.38-6.67c-5.14-4.44-7.71-9.86-7.71-16.25V11.3H173.9z"/>
		<path d="M229.35,73.8V11.3h4.17l39.17,39.17V11.3h12.5v62.5h-4.58l-38.75-38.75V73.8H229.35z"/>
		<path d="M298.44,11.25h12.5V73.8h-12.5V11.25z"/>
		<path d="M323.88,11.3h12.5v25l20.83-25h14.01L346.8,40.47l29.58,33.33h-16.25l-23.75-26.98V73.8h-12.5V11.3z"/>
		<path d="M384.18,11.25h12.5V73.8h-12.5V11.25z"/>
		<path d="M409.47,73.8V11.3h4.17l39.17,39.17V11.3h12.5v62.5h-4.58l-38.75-38.75V73.8H409.47z"/>
		<path d="M484.39,64.82c-5.97-5.99-8.96-13.41-8.96-22.27c0-8.89,2.99-16.32,8.96-22.29c5.97-5.97,13.39-8.96,22.24-8.96
			c8.89,0,16.32,2.99,22.29,8.96c5.97,5.97,8.96,13.4,8.96,22.29c0,8.89-2.99,16.32-8.96,22.29c-5.97,5.97-13.4,8.96-22.29,8.96
			C497.78,73.8,490.36,70.81,484.39,64.82z M506.68,62.13c5.52,0,10.02-1.88,13.49-5.63c3.47-3.75,5.21-8.4,5.21-13.96
			c0-5.56-1.74-10.21-5.21-13.96c-3.47-3.75-7.99-5.63-13.54-5.63c-5.52,0-10.02,1.88-13.49,5.63c-3.47,3.75-5.21,8.4-5.21,13.96
			c0,5.56,1.73,10.21,5.18,13.96S501.09,62.13,506.68,62.13z"/>
		<path d="M167.96,135.68c-5.97-5.96-8.96-13.41-8.96-22.37c0.03-8.78,3.03-16.17,8.98-22.16c5.95-5.99,13.36-8.98,22.21-8.98
			c8.92,0,16.56,2.78,22.92,8.33l-8.33,9.12c-4.24-3.33-9.1-5-14.58-5c-5.63,0.04-10.15,1.79-13.57,5.26
			c-3.42,3.47-5.13,7.92-5.13,13.33c0.03,5.8,1.77,10.41,5.21,13.83c3.44,3.42,7.95,5.13,13.54,5.13c4.51,0,7.97-0.88,10.36-2.66
			v-10.73l-8.33,0.05v-11.67h20.83v29.17c-6.35,5.56-13.99,8.33-22.92,8.33C181.35,144.63,173.93,141.63,167.96,135.68z"/>
		<path d="M225.86,144.66V82.21l45.94-0.05v11.67h-33.44v13.33h25.05v11.62h-25.05v14.22h33.33v11.67H225.86z"/>
		<path d="M290.26,135.68c-5.97-5.96-8.96-13.41-8.96-22.37c0.03-8.78,3.03-16.17,8.98-22.16c5.95-5.99,13.36-8.98,22.21-8.98
			c8.92,0,16.56,2.78,22.92,8.33l-8.33,9.12c-4.24-3.33-9.1-5-14.58-5c-5.63,0.04-10.15,1.79-13.57,5.26
			c-3.42,3.47-5.13,7.92-5.13,13.33c0.03,5.8,1.77,10.41,5.21,13.83c3.44,3.42,7.95,5.13,13.54,5.13c4.51,0,7.97-0.88,10.36-2.66
			v-10.73l-8.33,0.05v-11.67h20.83v29.17c-6.35,5.56-13.99,8.33-22.92,8.33C303.65,144.63,296.23,141.63,290.26,135.68z"/>
		<path d="M348.16,144.66V82.21l45.94-0.05v11.67h-33.44v13.33h25.05v11.62h-25.05v14.22h33.33v11.67H348.16z"/>
		<path d="M406.93,144.66v-62.5h4.17l39.17,39.17V82.16h12.5v62.5h-4.58l-38.75-38.75v38.75H406.93z"/>
		<path d="M488.68,82.16v50.84h33.33v11.67h-45.83v-62.5H488.68z"/>
		<path d="M532.57,82.11h12.5v62.55h-12.5V82.11z"/>
		<path d="M563.77,135.68c-5.99-5.96-8.98-13.41-8.98-22.37c0.03-8.78,3.04-16.17,9.01-22.16c5.97-5.99,13.37-8.98,22.19-8.98
			c8.92,0,16.58,2.78,22.97,8.33l-8.33,9.12c-4.24-3.33-9.11-5-14.64-5c-5.63,0.04-10.15,1.79-13.57,5.26
			c-3.42,3.47-5.13,7.92-5.13,13.33c0.03,5.8,1.77,10.41,5.21,13.83c3.44,3.42,7.97,5.13,13.59,5.13s10.47-1.65,14.53-4.95
			l8.33,9.11c-6.35,5.56-14.01,8.33-22.97,8.33C577.16,144.63,569.76,141.63,563.77,135.68z"/>
		<path d="M622.68,144.66v-62.5h12.5v25h29.12V82.11h12.5v62.5l-12.5,0.05v-25.83h-29.12v25.83H622.68z"/>
		<path d="M741.62,82.16v11.67h-20.83v50.83h-12.5V93.82H687.5V82.16H741.62z"/>
	</g>
	<g>
		<path d="M104.54,71.69c-1.8-1.1-3.66-2.1-5.51-3.12c-0.19-0.11-0.56-0.15-0.73-0.04c-1.15,0.8-2.26,1.67-3.41,2.49
			c-1.84,1.31-3.84,2.32-6.1,2.78c-0.6,0.12-1.22,0.1-1.84,0.16c-2.18,0.25-4.33,0.51-6.56,0.27c-2.76-0.31-5.39-0.88-7.92-2.03
			c-2.09-0.95-4.17-1.9-5.79-3.53c-0.5-0.51-0.86-0.47-1.42-0.22c-2.81,1.2-5.43,2.73-7.69,4.74c-1.3,1.15-2.35,2.56-3.62,3.96
			c20.47,0.64,40.61,1.27,60.78,1.9c-1.04-0.95-2.01-2.05-3.19-2.88C109.27,74.58,106.9,73.13,104.54,71.69z M65.79,70
			c-0.11-0.21-0.05-0.55,0.05-0.79c0.06-0.16,0.32-0.24,0.48-0.34c0.13,0.11,0.22,0.15,0.26,0.21c0.37,0.69,0.76,1.38,1.07,2.1
			c0.09,0.2-0.07,0.51-0.13,0.77c-0.26-0.13-0.62-0.21-0.78-0.42C66.37,71.06,66.05,70.54,65.79,70z M68.36,75.76
			c-0.35-0.45-0.65-0.95-0.89-1.46c-0.06-0.12,0.17-0.38,0.26-0.57c0.12,0,0.24-0.02,0.36-0.02c0.33,0.64,0.67,1.29,1,1.94
			C68.83,75.69,68.42,75.85,68.36,75.76z M96.48,75.8c-0.25,0.86-0.39,1.81-1.41,2.17c-0.09-0.04-0.18-0.1-0.28-0.14
			c0.29-0.77,0.56-1.55,0.89-2.3c0.07-0.16,0.4-0.21,0.62-0.3C96.37,75.42,96.53,75.64,96.48,75.8z M97.11,73.35
			c-0.09-0.02-0.18-0.04-0.27-0.06c0.05-0.34,0.05-0.68,0.15-1c0.32-0.92,0.66-1.83,1.03-2.73c0.09-0.21,0.34-0.36,0.51-0.54
			c0.12,0.21,0.35,0.43,0.34,0.63C98.81,71.12,97.98,72.24,97.11,73.35z"/>
		<path d="M95.66,19.16l-86.1,93.06l134.28,23.03L95.66,19.16z M92.21,62.98c0.72-1.12,1.47-2.22,2.24-3.31
			c0.18-0.26,0.41-0.51,0.67-0.71c0.12-0.1,0.42-0.15,0.51-0.08c0.15,0.13,0.19,0.37,0.24,0.49c-0.13,0.22-0.2,0.38-0.3,0.51
			c-0.89,1.21-1.76,2.43-2.69,3.61c-0.16,0.21-0.57,0.23-0.86,0.34C92.08,63.55,92.07,63.21,92.21,62.98z M88.96,61.5
			c0.45-1.02,0.93-2.03,1.47-3.01c0.11-0.19,0.56-0.19,0.86-0.28c0.06,0.09,0.11,0.19,0.17,0.28c-0.35,0.79-0.7,1.58-1.05,2.36
			c-0.16,0.34-0.26,0.74-0.51,1.01c-0.21,0.22-0.58,0.3-0.88,0.45C88.99,62.03,88.86,61.72,88.96,61.5z M86.13,59.7
			c0.15-0.63,0.38-1.25,0.62-1.85c0.07-0.18,0.3-0.31,0.46-0.46c0.12,0.2,0.37,0.42,0.36,0.62c-0.04,0.53-0.18,1.06-0.31,1.59
			c-0.11,0.42-0.23,0.83-0.4,1.23c-0.15,0.37-0.37,0.7-0.57,1.05c-0.16-0.06-0.34-0.11-0.5-0.17C85.9,61.03,85.96,60.36,86.13,59.7z
			 M82.51,56.7c0.14,0.47,0.25,0.68,0.27,0.9c0.1,1.18,0.21,2.36,0.25,3.55c0,0.17-0.3,0.43-0.5,0.5c-0.14,0.05-0.53-0.16-0.54-0.27
			c-0.08-1.31-0.13-2.62-0.13-3.93C81.85,57.25,82.18,57.06,82.51,56.7z M76.31,56.64c0.22,0.23,0.53,0.43,0.62,0.71
			c0.35,0.99,0.59,2.02,0.93,3.01c0.23,0.66-0.4,0.91-0.93,1.28c-0.4-1.39-0.79-2.62-1.09-3.87C75.77,57.47,76.18,56.96,76.31,56.64
			z M70.18,58.29c0.55-0.51,1.29-0.08,1.57,0.24c0.9,1.04,1.69,2.17,2.51,3.26c-0.16,0.26-0.25,0.4-0.34,0.53
			c-0.31,0.42-0.87,0.62-1.19,0.17c-0.73-1.03-1.53-2-2.24-3.04C70.27,59.12,70.04,58.43,70.18,58.29z M71.77,83.09
			c-0.48-0.95-0.98-1.89-1.43-2.85c-0.06-0.12,0.06-0.37,0.18-0.49c0.05-0.06,0.32-0.02,0.43,0.05
			C71.46,80.13,72.15,82.35,71.77,83.09z M74.59,88.4c-0.4-0.89-0.8-1.79-1.3-2.9c0.47,0.11,0.86,0.09,0.95,0.24
			C74.72,86.54,75.22,87.35,74.59,88.4z M78.19,111.28c-0.79,0.62-1.38,0.49-1.51-0.42c-0.23-1.57-0.16-3.09,1.2-4.23
			c0.22-0.18,0.6-0.19,0.9-0.28c0.03,0.1,0.05,0.2,0.07,0.3C77.27,109.16,77.15,110.06,78.19,111.28z M76.74,92.4
			c-0.04-0.11,0.15-0.29,0.23-0.43c0.14,0.1,0.35,0.18,0.4,0.31c0.42,1.18,0.82,2.38,1.23,3.57c-0.06,0.04-0.12,0.08-0.19,0.12
			c-0.16-0.08-0.42-0.13-0.47-0.26C77.51,94.61,77.11,93.51,76.74,92.4z M83.67,115.7c-0.87,0.15-1.77,0.17-2.91,0.25
			c-0.47-0.6-1-1.27-1.48-1.96c-0.02-0.04,0.36-0.38,0.59-0.51c0.07-0.03,0.32,0.17,0.43,0.31c0.92,1.22,1.63,1.44,3.2,1.07
			c0.28-0.06,0.61,0.1,0.92,0.16C84.17,115.25,83.95,115.65,83.67,115.7z M79.67,100.26c-0.03-0.07,0.09-0.18,0.14-0.27
			c0.08,0.06,0.22,0.11,0.25,0.19c0.27,0.74,0.51,1.49,0.77,2.23c-0.04,0.02-0.08,0.05-0.12,0.08c-0.1-0.05-0.26-0.08-0.29-0.16
			C80.16,101.65,79.91,100.95,79.67,100.26z M84.46,110.02c-0.33,1.45-1.54,1.77-2.74,1.65c-1.08-0.11-1.81-1.49-1.53-2.58
			c0.4-1.52,1.66-2.24,3.23-1.85C84.32,107.47,84.79,108.72,84.46,110.02z M83.52,102.88l1.45-2.47
			C85.21,101.01,84.3,102.62,83.52,102.88z M87.71,110.08c-0.15,0.72-0.42,1.41-0.69,2.11c-0.05,0.14-0.34,0.19-0.52,0.28
			c-0.08-0.18-0.23-0.37-0.22-0.55c0.02-0.32,0.14-0.63,0.24-1c0.55-1.3,0.03-2.49-0.62-3.66c-0.21-0.38-0.47-0.81,0.1-1.01
			c0.17-0.06,0.65,0.34,0.77,0.61C87.22,107.89,87.96,108.87,87.71,110.08z M85.59,97.4c0.26-0.82,0.49-1.6,0.76-2.37
			c0.05-0.14,0.25-0.26,0.4-0.32c0.06-0.03,0.24,0.12,0.29,0.22C87.28,95.54,86.37,97.14,85.59,97.4z M89.8,89.7
			c-0.36,0.87-0.79,1.71-1.21,2.55c-0.08,0.16-0.26,0.28-0.38,0.41c-0.07-0.07-0.14-0.15-0.22-0.23c0.36-1.01,0.69-2.01,1.08-3
			c0.08-0.21,0.37-0.33,0.56-0.49C89.69,89.19,89.88,89.5,89.8,89.7z M92.11,84.9c-0.12-0.03-0.24-0.06-0.36-0.09
			c0.04-0.37,0.02-0.74,0.12-1.09c0.17-0.62,0.39-1.24,0.65-1.84c0.08-0.17,0.34-0.27,0.52-0.41c0.09,0.19,0.3,0.43,0.25,0.57
			C92.93,83.01,92.51,83.95,92.11,84.9z M115.47,80.89c-0.13-0.03-0.27-0.05-0.43-0.06c-1.34-0.09-2.68-0.18-4.03-0.21
			c-4.8-0.11-9.61-0.19-14.42-0.31c-3.15-0.08-6.3-0.21-9.45-0.34c-3.4-0.14-6.8-0.36-10.2-0.48c-2.57-0.09-7.01-0.57-7.71-0.62
			c-1.77-0.13-4.18-0.43-6.27-0.47c-2.91-0.06-5.82-0.13-8.74-0.15c-0.39-0.17-0.82-0.22-1.25-0.26c-0.12-0.01-0.23-0.03-0.34-0.05
			c-0.08-0.07-0.16-0.15-0.21-0.23c-0.08-0.11-0.02-0.28,0.08-0.46c0.1-0.07,0.19-0.15,0.26-0.23c0.81-0.89,1.4-1.98,2.27-2.8
			c1.53-1.43,3.16-2.76,4.84-4.02c2.78-2.08,6.07-3.2,9.33-4.33c1.34-0.47,2.67-0.94,4.03-1.35c2.61-0.78,5.34-0.81,8.02-1.14
			c2.29-0.28,4.51-0.01,6.72,0.58c1.47,0.4,2.96,0.74,4.46,1.05l2.61,0.39c1.53,0.62,3.06,1.1,4.44,1.85
			c2.97,1.62,5.88,3.33,8.75,5.11c2.33,1.43,4.77,2.75,6.52,4.93c0.25,0.32,0.57,0.6,0.89,0.88c-0.03,0.35-0.08,1.51-0.1,1.87
			C115.53,80.31,115.49,80.6,115.47,80.89z"/>
		<path d="M97.4,67.55c-1.18-0.36-2.28-0.71-3.39-1.02c-0.14-0.04-0.35,0.2-0.53,0.31c-1.19,0.69-2.31,1.54-3.58,2.03
			c-1.21,0.47-2.58,0.62-3.89,0.8c-1.39,0.19-2.83,0.5-4.2,0.34c-3.32-0.39-5.95-2.23-8.5-4.38c-1.91,0.59-3.88,1.2-6.02,1.86
			C75.79,74.98,89.55,75.2,97.4,67.55z"/>
	</g>
</g>
</svg>
