<?xml version="1.0" encoding="utf-8"?>
<!-- Generator: Adobe Illustrator 24.2.0, SVG Export Plug-In . SVG Version: 6.00 Build 0)  -->
<svg version="1.1" xmlns="http://www.w3.org/2000/svg" xmlns:xlink="http://www.w3.org/1999/xlink" x="0px" y="0px"
	 viewBox="0 0 751.18 155.91" style="enable-background:new 0 0 751.18 155.91;" xml:space="preserve">
<style type="text/css">
	.st0{fill:#FFDD00;}
</style>
<g id="Layer_1">
</g>
<g id="dein_unikino">
</g>
<g id="gegenlicht">
	<polygon class="st0" points="95.66,19.16 9.56,112.23 143.84,135.26 	"/>
	<g>
		<path d="M173.9,11.3v36.25c0,4.72,1.39,8.2,4.17,10.42c2.78,2.22,6.25,3.33,10.42,3.33c4.17,0,7.64-1.11,10.42-3.33
			c2.78-2.22,4.17-5.69,4.17-10.42V11.3h12.5v39.59c0,6.39-2.57,11.81-7.71,16.25c-5.14,4.45-11.6,6.67-19.38,6.67
			c-7.78,0-14.24-2.22-19.38-6.67c-5.14-4.44-7.71-9.86-7.71-16.25V11.3H173.9z"/>
		<path d="M229.35,73.8V11.3h4.17l39.17,39.17V11.3h12.5v62.5h-4.58l-38.75-38.75V73.8H229.35z"/>
		<path d="M298.44,11.25h12.5V73.8h-12.5V11.25z"/>
		<path d="M323.88,11.3h12.5v25l20.83-25h14.01L346.8,40.47l29.58,33.33h-16.25l-23.75-26.98V73.8h-12.5V11.3z"/>
		<path d="M384.18,11.25h12.5V73.8h-12.5V11.25z"/>
		<path d="M409.47,73.8V11.3h4.17l39.17,39.17V11.3h12.5v62.5h-4.58l-38.75-38.75V73.8H409.47z"/>
		<path d="M484.39,64.82c-5.97-5.99-8.96-13.41-8.96-22.27c0-8.89,2.99-16.32,8.96-22.29c5.97-5.97,13.39-8.96,22.24-8.96
			c8.89,0,16.32,2.99,22.29,8.96c5.97,5.97,8.96,13.4,8.96,22.29c0,8.89-2.99,16.32-8.96,22.29c-5.97,5.97-13.4,8.96-22.29,8.96
			C497.78,73.8,490.36,70.81,484.39,64.82z M506.68,62.13c5.52,0,10.02-1.88,13.49-5.63c3.47-3.75,5.21-8.4,5.21-13.96
			c0-5.56-1.74-10.21-5.21-13.96c-3.47-3.75-7.99-5.63-13.54-5.63c-5.52,0-10.02,1.88-13.49,5.63c-3.47,3.75-5.21,8.4-5.21,13.96
			c0,5.56,1.73,10.21,5.18,13.96S501.09,62.13,506.68,62.13z"/>
		<path d="M167.96,135.68c-5.97-5.96-8.96-13.41-8.96-22.37c0.03-8.78,3.03-16.17,8.98-22.16c5.95-5.99,13.36-8.98,22.21-8.98
			c8.92,0,16.56,2.78,22.92,8.33l-8.33,9.12c-4.24-3.33-9.1-5-14.58-5c-5.63,0.04-10.15,1.79-13.57,5.26
			c-3.42,3.47-5.13,7.92-5.13,13.33c0.03,5.8,1.77,10.41,5.21,13.83c3.44,3.42,7.95,5.13,13.54,5.13c4.51,0,7.97-0.88,10.36-2.66
			v-10.73l-8.33,0.05v-11.67h20.83v29.17c-6.35,5.56-13.99,8.33-22.92,8.33C181.35,144.63,173.93,141.63,167.96,135.68z"/>
		<path d="M225.86,144.66V82.21l45.94-0.05v11.67h-33.44v13.33h25.05v11.62h-25.05v14.22h33.33v11.67H225.86z"/>
		<path d="M290.26,135.68c-5.97-5.96-8.96-13.41-8.96-22.37c0.03-8.78,3.03-16.17,8.98-22.16c5.95-5.99,13.36-8.98,22.21-8.98
			c8.92,0,16.56,2.78,22.92,8.33l-8.33,9.12c-4.24-3.33-9.1-5-14.58-5c-5.63,0.04-10.15,1.79-13.57,5.26
			c-3.42,3.47-5.13,7.92-5.13,13.33c0.03,5.8,1.77,10.41,5.21,13.83c3.44,3.42,7.95,5.13,13.54,5.13c4.51,0,7.97-0.88,10.36-2.66
			v-10.73l-8.33,0.05v-11.67h20.83v29.17c-6.35,5.56-13.99,8.33-22.92,8.33C303.65,144.63,296.23,141.63,290.26,135.68z"/>
		<path d="M348.16,144.66V82.21l45.94-0.05v11.67h-33.44v13.33h25.05v11.62h-25.05v14.22h33.33v11.67H348.16z"/>
		<path d="M406.93,144.66v-62.5h4.17l39.17,39.17V82.16h12.5v62.5h-4.58l-38.75-38.75v38.75H406.93z"/>
		<path d="M488.68,82.16v50.84h33.33v11.67h-45.83v-62.5H488.68z"/>
		<path d="M532.57,82.11h12.5v62.55h-12.5V82.11z"/>
		<path d="M563.77,135.68c-5.99-5.96-8.98-13.41-8.98-22.37c0.03-8.78,3.04-16.17,9.01-22.16c5.97-5.99,13.37-8.98,22.19-8.98
			c8.92,0,16.58,2.78,22.97,8.33l-8.33,9.12c-4.24-3.33-9.11-5-14.64-5c-5.63,0.04-10.15,1.79-13.57,5.26
			c-3.42,3.47-5.13,7.92-5.13,13.33c0.03,5.8,1.77,10.41,5.21,13.83c3.44,3.42,7.97,5.13,13.59,5.13s10.47-1.65,14.53-4.95
			l8.33,9.11c-6.35,5.56-14.01,8.33-22.97,8.33C577.16,144.63,569.76,141.63,563.77,135.68z"/>
		<path d="M622.68,144.66v-62.5h12.5v25h29.12V82.11h12.5v62.5l-12.5,0.05v-25.83h-29.12v25.83H622.68z"/>
		<path d="M741.62,82.16v11.67h-20.83v50.83h-12.5V93.82H687.5V82.16H741.62z"/>
	</g>
	<g>
		<path d="M53.95,77.14c1.26-1.4,2.32-2.8,3.62-3.96c2.27-2,4.88-3.53,7.69-4.74c0.57-0.25,0.92-0.29,1.42,0.22
			c1.62,1.64,3.7,2.58,5.79,3.53c2.52,1.15,5.16,1.72,7.92,2.03c2.23,0.24,4.39-0.02,6.56-0.27c0.62-0.06,1.24-0.04,1.84-0.16
			c2.26-0.46,4.25-1.47,6.1-2.78c1.15-0.82,2.26-1.69,3.41-2.49c0.16-0.11,0.54-0.07,0.73,0.04c1.85,1.02,3.71,2.03,5.51,3.12
			c2.36,1.44,4.73,2.9,7,4.48c1.18,0.82,2.15,1.92,3.19,2.88C94.56,78.41,74.42,77.78,53.95,77.14 M73.31,65.63
			c2.55,2.15,5.18,3.99,8.5,4.38c1.37,0.17,2.81-0.14,4.2-0.34c1.31-0.18,2.67-0.33,3.89-0.8c1.27-0.49,2.39-1.34,3.58-2.03
			c0.19-0.11,0.4-0.35,0.53-0.31c1.12,0.31,2.22,0.66,3.39,1.02c-7.85,7.65-21.62,7.42-30.11-0.07
			C69.43,66.83,71.4,66.22,73.31,65.63 M114.75,77.26c-1.75-2.18-4.19-3.49-6.52-4.93c-2.87-1.77-5.79-3.49-8.75-5.11
			c-1.38-0.75-2.92-1.23-4.44-1.85l-2.61-0.39c-1.5-0.31-2.98-0.65-4.46-1.05c-2.21-0.59-4.43-0.86-6.72-0.58
			c-2.69,0.33-5.41,0.36-8.02,1.14c-1.36,0.4-2.69,0.88-4.03,1.35c-3.26,1.13-6.55,2.25-9.33,4.33c-1.68,1.26-3.3,2.6-4.84,4.02
			c-0.87,0.81-1.46,1.91-2.27,2.8c-0.08,0.08-0.17,0.16-0.26,0.23c-0.1,0.18-0.15,0.35-0.08,0.46c0.06,0.08,0.13,0.16,0.21,0.23
			c0.11,0.02,0.22,0.04,0.34,0.05c0.43,0.04,0.86,0.09,1.25,0.26c2.92,0.01,5.82,0.08,8.74,0.15c2.09,0.04,4.5,0.34,6.27,0.47
			c0.69,0.05,5.14,0.53,7.71,0.62c3.4,0.12,6.8,0.33,10.2,0.48c3.15,0.14,6.3,0.26,9.45,0.34c4.81,0.12,9.62,0.2,14.42,0.31
			c1.35,0.03,2.69,0.12,4.03,0.21c0.16,0.01,0.3,0.03,0.43,0.06c0.02-0.29,0.06-0.58,0.07-0.88c0.02-0.36,0.06-1.52,0.1-1.87
			C115.32,77.86,115,77.58,114.75,77.26"/>
		<path d="M84.46,110.02c-0.33,1.45-1.54,1.77-2.74,1.65c-1.08-0.11-1.81-1.49-1.53-2.58c0.4-1.52,1.66-2.24,3.23-1.85
			C84.32,107.47,84.79,108.72,84.46,110.02"/>
		<path d="M74.26,61.79c-0.16,0.26-0.25,0.4-0.34,0.53c-0.31,0.42-0.87,0.62-1.19,0.17c-0.73-1.03-1.53-2-2.24-3.04
			c-0.23-0.33-0.46-1.03-0.31-1.17c0.55-0.51,1.29-0.08,1.57,0.24C72.65,59.58,73.44,60.71,74.26,61.79"/>
		<path d="M86.51,110.91c0.55-1.3,0.03-2.49-0.62-3.66c-0.21-0.38-0.47-0.81,0.1-1.01c0.17-0.06,0.65,0.34,0.77,0.61
			c0.45,1.03,1.19,2.01,0.94,3.22c-0.15,0.72-0.42,1.41-0.69,2.11c-0.05,0.14-0.34,0.19-0.52,0.28c-0.08-0.18-0.23-0.37-0.22-0.55
			C86.3,111.6,86.42,111.29,86.51,110.91"/>
		<path d="M78.85,106.65c-1.57,2.51-1.7,3.41-0.66,4.63c-0.79,0.62-1.38,0.49-1.51-0.42c-0.23-1.57-0.16-3.09,1.2-4.23
			c0.22-0.18,0.6-0.19,0.9-0.28C78.81,106.45,78.83,106.55,78.85,106.65"/>
		<path d="M80.75,115.95c-0.47-0.6-1-1.27-1.48-1.96c-0.02-0.04,0.36-0.38,0.59-0.51c0.07-0.03,0.32,0.17,0.43,0.31
			c0.92,1.22,1.63,1.44,3.2,1.07c0.28-0.06,0.61,0.1,0.92,0.16c-0.24,0.24-0.46,0.63-0.75,0.68
			C82.79,115.85,81.89,115.87,80.75,115.95"/>
		<path d="M95.87,59.37c-0.13,0.22-0.2,0.38-0.3,0.51c-0.89,1.21-1.76,2.43-2.69,3.61c-0.16,0.21-0.57,0.23-0.86,0.34
			c0.06-0.28,0.05-0.62,0.19-0.85c0.72-1.12,1.47-2.22,2.24-3.31c0.18-0.26,0.41-0.51,0.67-0.71c0.12-0.1,0.42-0.15,0.51-0.08
			C95.77,59.01,95.81,59.25,95.87,59.37"/>
		<path d="M82.51,56.7c0.14,0.47,0.25,0.68,0.27,0.9c0.1,1.18,0.21,2.36,0.25,3.55c0,0.17-0.3,0.43-0.5,0.5
			c-0.14,0.05-0.53-0.16-0.54-0.27c-0.08-1.31-0.13-2.62-0.13-3.93C81.85,57.25,82.18,57.06,82.51,56.7"/>
		<path d="M76.93,61.63c-0.4-1.39-0.79-2.62-1.09-3.87c-0.06-0.28,0.34-0.8,0.47-1.12c0.22,0.23,0.53,0.43,0.62,0.71
			c0.35,0.99,0.59,2.02,0.93,3.01C78.09,61.01,77.47,61.26,76.93,61.63"/>
		<path d="M85.79,61.71c0.11-0.68,0.18-1.35,0.34-2.01c0.15-0.63,0.38-1.25,0.62-1.85c0.07-0.18,0.3-0.31,0.46-0.46
			c0.12,0.2,0.37,0.42,0.36,0.62c-0.04,0.53-0.18,1.06-0.31,1.59c-0.11,0.42-0.23,0.83-0.4,1.23c-0.15,0.37-0.37,0.7-0.57,1.05
			C86.13,61.82,85.95,61.76,85.79,61.71"/>
		<path d="M91.46,58.49c-0.35,0.79-0.7,1.58-1.05,2.36c-0.16,0.34-0.26,0.74-0.51,1.01c-0.21,0.22-0.58,0.3-0.88,0.45
			c-0.02-0.27-0.16-0.59-0.06-0.81c0.45-1.02,0.93-2.03,1.47-3.01c0.11-0.19,0.56-0.19,0.86-0.28C91.35,58.3,91.4,58.4,91.46,58.49"
			/>
		<path d="M78.4,95.97c-0.16-0.08-0.42-0.13-0.47-0.26c-0.43-1.1-0.83-2.2-1.2-3.31c-0.04-0.11,0.15-0.29,0.23-0.43
			c0.14,0.1,0.35,0.18,0.4,0.31c0.42,1.18,0.82,2.38,1.23,3.57C78.53,95.89,78.47,95.93,78.4,95.97"/>
		<path d="M87.98,92.43c0.36-1.01,0.69-2.01,1.08-3c0.08-0.21,0.37-0.33,0.56-0.49c0.07,0.26,0.26,0.56,0.18,0.76
			c-0.36,0.87-0.79,1.71-1.21,2.55c-0.08,0.16-0.26,0.28-0.38,0.41C88.13,92.58,88.06,92.5,87.98,92.43"/>
		<path d="M71.77,83.09c-0.48-0.95-0.98-1.89-1.43-2.85c-0.06-0.12,0.06-0.37,0.18-0.49c0.05-0.06,0.32-0.02,0.43,0.05
			C71.46,80.13,72.15,82.35,71.77,83.09"/>
		<path d="M91.75,84.82c0.04-0.37,0.02-0.74,0.12-1.09c0.17-0.62,0.39-1.24,0.65-1.84c0.08-0.17,0.34-0.27,0.52-0.41
			c0.09,0.19,0.3,0.43,0.25,0.57c-0.36,0.96-0.78,1.9-1.17,2.86C91.99,84.87,91.87,84.85,91.75,84.82"/>
		<path d="M74.59,88.4c-0.4-0.89-0.8-1.79-1.3-2.9c0.47,0.11,0.86,0.09,0.95,0.24C74.72,86.54,75.22,87.35,74.59,88.4"/>
		<path d="M85.59,97.4c0.26-0.82,0.49-1.6,0.76-2.37c0.05-0.14,0.25-0.26,0.4-0.32c0.06-0.03,0.24,0.12,0.29,0.22
			C87.28,95.54,86.37,97.14,85.59,97.4"/>
		<path d="M96.84,73.28c0.05-0.34,0.05-0.68,0.15-1c0.32-0.92,0.66-1.83,1.03-2.73c0.09-0.21,0.34-0.36,0.51-0.54
			c0.12,0.21,0.35,0.43,0.34,0.63c-0.06,1.47-0.9,2.6-1.76,3.7C97.02,73.32,96.93,73.3,96.84,73.28"/>
		<path d="M66.33,68.87c0.13,0.11,0.22,0.15,0.26,0.21c0.37,0.69,0.76,1.38,1.07,2.1c0.09,0.2-0.07,0.51-0.13,0.77
			c-0.26-0.13-0.62-0.21-0.78-0.42c-0.38-0.46-0.7-0.98-0.95-1.52c-0.11-0.21-0.05-0.55,0.05-0.79
			C65.91,69.05,66.16,68.97,66.33,68.87"/>
		<path d="M94.79,77.83c0.29-0.77,0.56-1.55,0.89-2.3c0.07-0.16,0.4-0.21,0.62-0.3c0.07,0.19,0.23,0.41,0.18,0.57
			c-0.25,0.86-0.39,1.81-1.41,2.17C94.98,77.93,94.88,77.87,94.79,77.83"/>
		<path d="M68.08,73.71c0.33,0.64,0.67,1.29,1,1.94c-0.25,0.04-0.66,0.21-0.72,0.12c-0.35-0.45-0.65-0.95-0.89-1.46
			c-0.06-0.12,0.17-0.38,0.26-0.57C67.85,73.73,67.97,73.72,68.08,73.71"/>
		<path d="M80.72,102.49c-0.1-0.05-0.26-0.08-0.29-0.16c-0.27-0.69-0.52-1.38-0.75-2.07c-0.03-0.07,0.09-0.18,0.14-0.27
			c0.09,0.06,0.22,0.11,0.25,0.19c0.27,0.74,0.51,1.49,0.77,2.23C80.8,102.44,80.76,102.47,80.72,102.49"/>
		<path d="M84.96,100.41c0.25,0.61-0.66,2.21-1.45,2.47"/>
	</g>
</g>
</svg>
