<?xml version="1.0" encoding="UTF-8" standalone="no"?>
<!-- Created with Inkscape (http://www.inkscape.org/) -->

<svg
   width="150"
   height="38.671875"
   viewBox="0 0 150 38.671877"
   version="1.1"
   id="svg1"
   xmlns="http://www.w3.org/2000/svg"
   xmlns:svg="http://www.w3.org/2000/svg">
  <defs
     id="defs1" />
  <g
     id="layer1">
    <g
       id="g1"
       transform="matrix(1.171875,0,0,1.171875,-7.1006538,-4.3248307)">
      <path
         d="m 44.330724,18.190481 v -5.45894 h 0.8545 l 0.0049,1.22074 h -0.0684 c 0.0749,-0.2963 0.1921,-0.5404 0.3516,-0.73246 0.1627,-0.19532 0.3515,-0.3418 0.5664,-0.43946 0.2181,-0.09765 0.4443,-0.14648 0.6787,-0.14648 0.3971,0 0.7178,0.12207 0.9619,0.36621 0.2474,0.24414 0.4069,0.56479 0.4785,0.96189 h -0.1172 c 0.0651,-0.2734 0.1839,-0.5094 0.3565,-0.70798 0.1725,-0.19857 0.3808,-0.35157 0.625,-0.45899 0.2474,-0.10742 0.5159,-0.16113 0.8056,-0.16113 0.3158,0 0.6039,0.06836 0.8643,0.20508 0.2604,0.13672 0.4671,0.34342 0.6201,0.62012 0.1563,0.2767 0.2344,0.6266 0.2344,1.0498 v 3.6816 h -0.8789 v -3.6572 c 0,-0.3939 -0.1107,-0.6754 -0.3321,-0.8447 -0.2213,-0.1693 -0.4785,-0.2539 -0.7714,-0.2539 -0.2442,0 -0.4558,0.0521 -0.6348,0.1562 -0.1758,0.1009 -0.3125,0.2409 -0.4102,0.42 -0.0944,0.179 -0.1416,0.3841 -0.1416,0.6152 v 3.5644 h -0.8789 v -3.7451 c 0,-0.3027 -0.1009,-0.5469 -0.3027,-0.7324 -0.2018,-0.1855 -0.4574,-0.2783 -0.7666,-0.2783 -0.2116,0 -0.4118,0.0504 -0.6006,0.1513 -0.1855,0.0977 -0.3353,0.2442 -0.4492,0.4395 -0.1139,0.1953 -0.1709,0.4378 -0.1709,0.7275 v 3.4375 z m 10.2881,0.127 c -0.3451,0 -0.6592,-0.0651 -0.9424,-0.1953 -0.28,-0.1302 -0.5029,-0.3207 -0.669,-0.5713 -0.166,-0.2507 -0.249,-0.555 -0.249,-0.9131 0,-0.3125 0.0619,-0.5664 0.1856,-0.7617 0.1237,-0.1953 0.2881,-0.3483 0.4931,-0.459 0.2084,-0.1139 0.4379,-0.1986 0.6885,-0.2539 0.2507,-0.0553 0.5029,-0.0993 0.7568,-0.1318 0.3256,-0.0424 0.5909,-0.0749 0.7959,-0.0977 0.2051,-0.0228 0.3565,-0.0618 0.4541,-0.1172 0.101,-0.0553 0.1514,-0.1497 0.1514,-0.2832 v -0.0293 c 0,-0.2278 -0.0423,-0.4199 -0.1269,-0.5762 -0.0847,-0.1595 -0.2116,-0.2815 -0.3809,-0.3662 -0.1693,-0.0846 -0.3809,-0.1269 -0.6348,-0.1269 -0.2604,0 -0.4834,0.0407 -0.6689,0.1221 -0.1856,0.0813 -0.3369,0.1839 -0.4541,0.3076 -0.1139,0.1204 -0.2002,0.2441 -0.2588,0.3711 l -0.8447,-0.2784 c 0.1399,-0.332 0.3287,-0.59078 0.5664,-0.77632 0.2376,-0.18881 0.4996,-0.32227 0.7861,-0.4004 0.2865,-0.07812 0.5697,-0.11718 0.8496,-0.11718 0.1823,0 0.389,0.02278 0.6201,0.06836 0.2344,0.04231 0.459,0.12858 0.6739,0.25879 0.2181,0.1302 0.3971,0.32389 0.5371,0.58105 0.1432,0.2539 0.2148,0.5941 0.2148,1.0205 v 3.5986 h -0.8642 v -0.7421 h -0.0586 c -0.0619,0.1269 -0.1612,0.2587 -0.2979,0.3955 -0.1367,0.1334 -0.3141,0.2457 -0.5322,0.3369 -0.2181,0.0911 -0.4818,0.1367 -0.791,0.1367 z m 0.1513,-0.7764 c 0.3256,0 0.6006,-0.0634 0.8252,-0.1904 0.2246,-0.127 0.3955,-0.2913 0.5127,-0.4932 0.1172,-0.205 0.1758,-0.4183 0.1758,-0.6396 v -0.7569 c -0.0358,0.0424 -0.1139,0.0814 -0.2344,0.1172 -0.1204,0.0326 -0.2588,0.0619 -0.415,0.0879 -0.153,0.0261 -0.3027,0.0489 -0.4492,0.0684 -0.1433,0.0163 -0.2572,0.0293 -0.3418,0.039 -0.2116,0.0261 -0.4102,0.0717 -0.5957,0.1368 -0.1823,0.0618 -0.3288,0.1546 -0.4395,0.2783 -0.1107,0.1204 -0.166,0.2848 -0.166,0.4932 0,0.1888 0.0488,0.3466 0.1465,0.4736 0.0976,0.1269 0.2311,0.223 0.4004,0.2881 0.1693,0.0651 0.3629,0.0976 0.581,0.0976 z m 5.9815,0.7666 c -0.4525,0 -0.8529,-0.1155 -1.2012,-0.3467 -0.3483,-0.2311 -0.6201,-0.5582 -0.8154,-0.9814 -0.1953,-0.4232 -0.293,-0.9245 -0.293,-1.5039 0,-0.5762 0.0977,-1.0742 0.293,-1.4941 0.1985,-0.4232 0.472,-0.74874 0.8203,-0.97661 0.3483,-0.22786 0.7487,-0.34179 1.2012,-0.34179 0.3548,0 0.6364,0.05859 0.8447,0.17578 0.2083,0.11719 0.3678,0.25065 0.4785,0.40039 0.1139,0.14653 0.2002,0.26853 0.2588,0.36623 h 0.0684 v -2.69045 h 0.8789 v 7.27535 h -0.8496 v -0.8447 h -0.0977 c -0.0586,0.1009 -0.1465,0.2279 -0.2637,0.3809 -0.1139,0.1497 -0.2767,0.2848 -0.4883,0.4052 -0.2083,0.1172 -0.4866,0.1758 -0.8349,0.1758 z m 0.1318,-0.7861 c 0.332,0 0.612,-0.0863 0.8399,-0.2588 0.2278,-0.1758 0.4004,-0.4183 0.5175,-0.7275 0.1172,-0.3093 0.1758,-0.6657 0.1758,-1.0694 0,-0.4036 -0.0586,-0.7552 -0.1758,-1.0547 -0.1139,-0.3027 -0.2848,-0.5387 -0.5127,-0.708 -0.2278,-0.1692 -0.5094,-0.2539 -0.8447,-0.2539 -0.345,0 -0.6331,0.0895 -0.8642,0.2686 -0.2279,0.179 -0.3988,0.4215 -0.5127,0.7275 -0.114,0.3028 -0.1709,0.6429 -0.1709,1.0205 0,0.3809 0.0569,0.7276 0.1709,1.0401 0.1172,0.3092 0.2913,0.5566 0.5224,0.7422 0.2311,0.1822 0.516,0.2734 0.8545,0.2734 z m 6.2403,0.7861 c -0.5274,0 -0.9831,-0.1172 -1.3672,-0.3515 -0.3809,-0.2344 -0.6755,-0.5616 -0.8838,-0.9815 -0.2051,-0.4199 -0.3076,-0.9098 -0.3076,-1.4697 0,-0.5599 0.1009,-1.0531 0.3027,-1.4795 0.2018,-0.4264 0.4866,-0.76009 0.8545,-1.00098 0.3711,-0.24088 0.804,-0.36132 1.2988,-0.36132 0.2897,0 0.5746,0.04882 0.8545,0.14648 0.2832,0.0944 0.5387,0.24902 0.7666,0.46387 0.2311,0.21155 0.415,0.49155 0.5518,0.83985 0.1367,0.3483 0.205,0.7747 0.205,1.2793 v 0.3662 h -4.2382 v -0.7422 h 3.7646 l -0.4101,0.2734 c 0,-0.358 -0.057,-0.6754 -0.1709,-0.9521 -0.1107,-0.2799 -0.2767,-0.498 -0.4981,-0.6543 -0.2213,-0.1595 -0.4964,-0.2393 -0.8252,-0.2393 -0.3288,0 -0.6103,0.0814 -0.8447,0.2442 -0.2344,0.1595 -0.4134,0.3695 -0.5371,0.6299 -0.1237,0.2571 -0.1856,0.5338 -0.1856,0.83 v 0.4932 c 0,0.4037 0.07,0.7471 0.21,1.0303 0.14,0.2799 0.3353,0.4931 0.5859,0.6396 0.2539,0.1433 0.5469,0.2149 0.8789,0.2149 0.2149,0 0.4102,-0.0309 0.586,-0.0928 0.1758,-0.0618 0.3271,-0.1546 0.4541,-0.2783 0.1269,-0.127 0.2246,-0.2832 0.2929,-0.4688 l 0.8497,0.2344 c -0.0847,0.2734 -0.2279,0.5143 -0.4297,0.7227 -0.2019,0.2083 -0.4525,0.3711 -0.752,0.4882 -0.2962,0.1172 -0.6315,0.1758 -1.0058,0.1758 z m 8.7548,0 c -0.345,0 -0.6233,-0.0586 -0.8349,-0.1758 -0.2116,-0.1204 -0.3744,-0.2555 -0.4883,-0.4052 -0.1139,-0.153 -0.2018,-0.28 -0.2637,-0.3809 h -0.0976 v 0.8447 h -0.8496 v -7.27535 h 0.8789 v 2.69045 h 0.0683 c 0.0619,-0.0977 0.1481,-0.2197 0.2588,-0.36623 0.1107,-0.14974 0.2702,-0.2832 0.4785,-0.40039 0.2084,-0.11719 0.4899,-0.17578 0.8448,-0.17578 0.4557,0 0.8561,0.11393 1.2011,0.34179 0.3483,0.22787 0.6201,0.55341 0.8155,0.97661 0.1985,0.4199 0.2978,0.9179 0.2978,1.4941 0,0.5794 -0.0977,1.0807 -0.293,1.5039 -0.1953,0.4232 -0.4671,0.7503 -0.8154,0.9814 -0.345,0.2312 -0.7454,0.3467 -1.2012,0.3467 z m -0.1318,-0.7861 c 0.3418,0 0.6266,-0.0912 0.8545,-0.2734 0.2311,-0.1856 0.4036,-0.433 0.5176,-0.7422 0.1172,-0.3125 0.1758,-0.6592 0.1758,-1.0401 0,-0.3776 -0.057,-0.7177 -0.1709,-1.0205 -0.114,-0.306 -0.2865,-0.5485 -0.5176,-0.7275 -0.2279,-0.1791 -0.5143,-0.2686 -0.8594,-0.2686 -0.3353,0 -0.6169,0.0847 -0.8447,0.2539 -0.2279,0.1693 -0.4004,0.4053 -0.5176,0.708 -0.1139,0.2995 -0.1709,0.6511 -0.1709,1.0547 0,0.4037 0.0586,0.7601 0.1758,1.0694 0.1172,0.3092 0.2897,0.5517 0.5176,0.7275 0.2311,0.1725 0.511,0.2588 0.8398,0.2588 z m 3.4375,2.6465 0.2246,-0.7617 0.0928,0.0244 c 0.179,0.0455 0.3418,0.0569 0.4883,0.0342 0.1464,-0.0196 0.2783,-0.0912 0.3955,-0.2149 0.1172,-0.1237 0.2197,-0.3157 0.3076,-0.5762 l 0.1562,-0.4541 -2.0849,-5.48824 h 0.9619 l 1.1621,3.23734 c 0.1237,0.3385 0.2279,0.6738 0.3125,1.0058 0.0846,0.3321 0.1742,0.6543 0.2686,0.9668 h -0.3223 c 0.0944,-0.3125 0.1839,-0.6347 0.2685,-0.9668 0.0879,-0.3353 0.1921,-0.6706 0.3125,-1.0058 l 1.1719,-3.23734 h 0.9571 l -2.3975,6.27444 c -0.1107,0.2897 -0.2442,0.5273 -0.4004,0.7129 -0.153,0.1888 -0.332,0.3271 -0.5371,0.415 -0.2051,0.0911 -0.4362,0.1367 -0.6934,0.1367 -0.1562,0 -0.2913,-0.0114 -0.4052,-0.0342 -0.114,-0.0227 -0.1937,-0.0455 -0.2393,-0.0683 z m 9.2773,-5.249 v 3.2714 h -0.8789 v -7.27535 h 0.8789 v 3.13965 h -0.1513 c 0.166,-0.5046 0.402,-0.86263 0.708,-1.07422 0.3092,-0.21159 0.6706,-0.31738 1.084,-0.31738 0.3678,0 0.6901,0.07649 0.9668,0.22949 0.2799,0.14974 0.4964,0.3776 0.6494,0.68361 0.1562,0.3027 0.2344,0.6852 0.2344,1.1474 v 3.4668 h -0.8838 v -3.3935 c 0,-0.4199 -0.1107,-0.7487 -0.3321,-0.9863 -0.2181,-0.2377 -0.5175,-0.3565 -0.8984,-0.3565 -0.2604,0 -0.4948,0.057 -0.7031,0.1709 -0.2084,0.1139 -0.3727,0.28 -0.4932,0.4981 -0.1204,0.2181 -0.1807,0.4834 -0.1807,0.7959 z m 6.8897,3.3398 c -0.3678,0 -0.6917,-0.0749 -0.9717,-0.2246 -0.2767,-0.153 -0.4932,-0.3825 -0.6494,-0.6885 -0.153,-0.306 -0.2295,-0.6885 -0.2295,-1.1474 v -3.46684 h 0.8789 v 3.39354 c 0,0.4199 0.1107,0.7487 0.332,0.9863 0.2214,0.2377 0.5225,0.3565 0.9034,0.3565 0.2604,0 0.4931,-0.057 0.6982,-0.1709 0.2083,-0.1139 0.3727,-0.28 0.4932,-0.4981 0.1204,-0.2213 0.1806,-0.4866 0.1806,-0.7959 v -3.27144 h 0.8838 v 5.45894 h -0.8496 v -1.3232 h 0.1172 c -0.1693,0.5111 -0.4102,0.8708 -0.7227,1.0791 -0.3092,0.2083 -0.664,0.3125 -1.0644,0.3125 z m 4.0674,-0.0684 v -5.45894 h 0.854496 l 0.005,1.22074 h -0.0684 c 0.0749,-0.2963 0.192,-0.5404 0.3516,-0.73246 0.1627,-0.19532 0.3515,-0.3418 0.5664,-0.43946 0.2181,-0.09765 0.4443,-0.14648 0.6787,-0.14648 0.3971,0 0.7177,0.12207 0.9619,0.36621 0.2474,0.24414 0.4069,0.56479 0.4785,0.96189 h -0.1172 c 0.0651,-0.2734 0.1839,-0.5094 0.3565,-0.70798 0.1725,-0.19857 0.3808,-0.35157 0.625,-0.45899 0.2474,-0.10742 0.5159,-0.16113 0.8056,-0.16113 0.3158,0 0.6039,0.06836 0.8646,0.20508 0.26,0.13672 0.467,0.34342 0.62,0.62012 0.156,0.2767 0.234,0.6266 0.234,1.0498 v 3.6816 h -0.879 v -3.6572 c 0,-0.3939 -0.11,-0.6754 -0.3318,-0.8447 -0.2213,-0.1693 -0.4785,-0.2539 -0.7714,-0.2539 -0.2442,0 -0.4558,0.0521 -0.6348,0.1562 -0.1758,0.1009 -0.3125,0.2409 -0.4102,0.42 -0.0944,0.179 -0.1416,0.3841 -0.1416,0.6152 v 3.5644 h -0.8789 v -3.7451 c 0,-0.3027 -0.1009,-0.5469 -0.3027,-0.7324 -0.2018,-0.1855 -0.4574,-0.2783 -0.7666,-0.2783 -0.2116,0 -0.4118,0.0504 -0.6006,0.1513 -0.1855,0.0977 -0.3353,0.2442 -0.4492,0.4395 -0.114,0.1953 -0.1709,0.4378 -0.1709,0.7275 v 3.4375 z m 10.287596,0.127 c -0.345,0 -0.659,-0.0651 -0.942,-0.1953 -0.28,-0.1302 -0.503,-0.3207 -0.669,-0.5713 -0.166,-0.2507 -0.249,-0.555 -0.249,-0.9131 0,-0.3125 0.062,-0.5664 0.186,-0.7617 0.123,-0.1953 0.288,-0.3483 0.493,-0.459 0.208,-0.1139 0.438,-0.1986 0.688,-0.2539 0.251,-0.0553 0.503,-0.0993 0.757,-0.1318 0.326,-0.0424 0.591,-0.0749 0.796,-0.0977 0.205,-0.0228 0.356,-0.0618 0.454,-0.1172 0.101,-0.0553 0.151,-0.1497 0.151,-0.2832 v -0.0293 c 0,-0.2278 -0.042,-0.4199 -0.126,-0.5762 -0.085,-0.1595 -0.212,-0.2815 -0.381,-0.3662 -0.17,-0.0846 -0.381,-0.1269 -0.635,-0.1269 -0.26,0 -0.483,0.0407 -0.669,0.1221 -0.186,0.0813 -0.337,0.1839 -0.454,0.3076 -0.114,0.1204 -0.2,0.2441 -0.259,0.3711 l -0.845,-0.2784 c 0.14,-0.332 0.329,-0.59078 0.567,-0.77632 0.237,-0.18881 0.499,-0.32227 0.786,-0.4004 0.286,-0.07812 0.57,-0.11718 0.85,-0.11718 0.182,0 0.389,0.02278 0.62,0.06836 0.234,0.04231 0.459,0.12858 0.673,0.25879 0.219,0.1302 0.398,0.32389 0.538,0.58105 0.143,0.2539 0.214,0.5941 0.214,1.0205 v 3.5986 h -0.864 v -0.7421 h -0.058 c -0.062,0.1269 -0.162,0.2587 -0.298,0.3955 -0.137,0.1334 -0.314,0.2457 -0.533,0.3369 -0.218,0.0911 -0.481,0.1367 -0.791,0.1367 z m 0.152,-0.7764 c 0.325,0 0.6,-0.0634 0.825,-0.1904 0.225,-0.127 0.396,-0.2913 0.513,-0.4932 0.117,-0.205 0.175,-0.4183 0.175,-0.6396 v -0.7569 c -0.035,0.0424 -0.113,0.0814 -0.234,0.1172 -0.12,0.0326 -0.259,0.0619 -0.415,0.0879 -0.153,0.0261 -0.303,0.0489 -0.449,0.0684 -0.143,0.0163 -0.257,0.0293 -0.342,0.039 -0.212,0.0261 -0.41,0.0717 -0.596,0.1368 -0.182,0.0618 -0.328,0.1546 -0.439,0.2783 -0.111,0.1204 -0.166,0.2848 -0.166,0.4932 0,0.1888 0.049,0.3466 0.146,0.4736 0.098,0.1269 0.232,0.223 0.401,0.2881 0.169,0.0651 0.363,0.0976 0.581,0.0976 z m 4.814,-2.622 v 3.2714 h -0.879 v -5.45894 h 0.845 l 0.005,1.32324 h -0.122 c 0.166,-0.5046 0.402,-0.86263 0.708,-1.07422 0.309,-0.21159 0.67,-0.31738 1.084,-0.31738 0.368,0 0.69,0.07649 0.967,0.22949 0.276,0.14974 0.491,0.3776 0.644,0.68361 0.156,0.3027 0.235,0.6852 0.235,1.1474 v 3.4668 h -0.879 v -3.3935 c 0,-0.4199 -0.111,-0.7487 -0.332,-0.9863 -0.218,-0.2377 -0.518,-0.3565 -0.899,-0.3565 -0.26,0 -0.495,0.057 -0.703,0.1709 -0.208,0.1139 -0.373,0.28 -0.493,0.4981 -0.12,0.2181 -0.181,0.4834 -0.181,0.7959 z m 6.885,3.3886 c -0.374,0 -0.708,-0.0537 -1.001,-0.1611 -0.29,-0.1107 -0.529,-0.2734 -0.718,-0.4883 -0.189,-0.2148 -0.315,-0.4785 -0.381,-0.791 l 0.835,-0.2002 c 0.079,0.2995 0.225,0.5192 0.44,0.6592 0.218,0.14 0.49,0.2099 0.815,0.2099 0.381,0 0.684,-0.0813 0.908,-0.2441 0.228,-0.1628 0.342,-0.3564 0.342,-0.5811 0,-0.1888 -0.066,-0.345 -0.2,-0.4687 -0.13,-0.127 -0.33,-0.2214 -0.6,-0.2832 l -0.909,-0.2148 c -0.494,-0.1172 -0.862,-0.2979 -1.103,-0.542 -0.241,-0.2474 -0.362,-0.5632 -0.362,-0.9473 0,-0.3125 0.088,-0.5876 0.264,-0.8252 0.176,-0.24089 0.415,-0.42806 0.718,-0.56152 0.306,-0.13672 0.653,-0.20508 1.04,-0.20508 0.374,0 0.692,0.05696 0.952,0.1709 0.264,0.11067 0.477,0.26529 0.64,0.46386 0.166,0.19534 0.289,0.42154 0.371,0.67874 l -0.796,0.2051 c -0.075,-0.1954 -0.2,-0.3728 -0.376,-0.5323 -0.173,-0.1595 -0.435,-0.2392 -0.786,-0.2392 -0.326,0 -0.598,0.0748 -0.816,0.2246 -0.214,0.1497 -0.322,0.3385 -0.322,0.5664 0,0.2018 0.073,0.3646 0.22,0.4883 0.146,0.1204 0.379,0.2181 0.698,0.2929 l 0.825,0.1953 c 0.495,0.1172 0.861,0.2995 1.099,0.5469 0.238,0.2442 0.356,0.5534 0.356,0.9278 0,0.319 -0.091,0.6038 -0.273,0.8544 -0.179,0.2474 -0.431,0.4428 -0.757,0.586 -0.322,0.1432 -0.697,0.2148 -1.123,0.2148 z m -77.399696,10.8828 v -7.326 h 0.4884 l 4.591,4.591 v -4.591 h 1.4652 v 7.326 h -0.5373 l -4.5421,-4.5421 v 4.5421 z m 11.3472,0 c -1.0378,0 -1.9068,-0.35 -2.6068,-1.05 -0.7,-0.7041 -1.0501,-1.5751 -1.0501,-2.613 0,-1.0419 0.3501,-1.9129 1.0501,-2.6129 0.7,-0.7 1.569,-1.0501 2.6068,-1.0501 1.042,0 1.9129,0.3501 2.613,1.0501 0.7,0.7 1.05,1.571 1.05,2.6129 0,1.042 -0.35,1.9129 -1.05,2.613 -0.7001,0.7 -1.571,1.05 -2.613,1.05 z m 0.0061,-1.3675 c 0.6472,0 1.1742,-0.2198 1.5812,-0.6593 0.407,-0.4396 0.6105,-0.985 0.6105,-1.6362 0,-0.6512 -0.2035,-1.1965 -0.6105,-1.6361 -0.407,-0.4396 -0.9361,-0.6593 -1.5873,-0.6593 -0.6471,0 -1.1742,0.2197 -1.5812,0.6593 -0.407,0.4396 -0.6105,0.9849 -0.6105,1.6361 0,0.6512 0.2015,1.1966 0.6044,1.6362 0.407,0.4395 0.9382,0.6593 1.5934,0.6593 z m 10.7172,-5.9585 v 1.3676 h -2.442 v 5.9584 h -1.4652 v -5.9584 h -2.4359 v -1.3676 z m 10.2246,2.1612 c -0.0244,0.6512 -0.2015,1.0847 -0.5311,1.3004 0.6389,0.4314 0.9788,0.991 1.0195,1.6788 -0.0651,1.3798 -0.8018,2.1103 -2.21,2.1917 l -4.1209,-0.0061 v -7.3199 h 3.8889 c 1.2332,0.0733 1.8844,0.7917 1.9536,2.1551 z m -4.3712,0.7814 h 2.0513 c 0.5861,-0.0122 0.8873,-0.3174 0.9035,-0.9157 -0.0162,-0.3582 -0.3134,-0.5474 -0.8913,-0.5678 h -2.0635 z m 0,3.2418 h 2.3932 c 0.6837,-0.0122 1.0338,-0.3663 1.05,-1.0623 -0.0162,-0.468 -0.3622,-0.7122 -1.0378,-0.7326 h -2.4054 z m 5.887,-6.1844 h 1.7216 l 1.6972,2.3932 1.74,-2.3932 h 1.6788 l -2.6862,3.663 v 3.663 h -1.4652 v -3.663 z m 10.9314,7.326 2.9304,-7.326 h 1.4652 l 2.9243,7.3199 -1.5567,0.0061 -0.4396,-1.1233 h -3.3211 l -0.4396,1.1233 z m 3.6997,-5.3724 -1.1111,2.7839 h 2.1978 z m 4.7025,-1.9597 h 1.4652 v 7.3321 h -1.4652 z"
         fill="#ffdd00"
         id="path1" />
      <rect
         x="6.5592246"
         y="4.1905222"
         width="127"
         height="32"
         stroke="#ffdd00"
         id="rect1"
         style="fill:none" />
      <line
         x1="37.059223"
         y1="4.1905222"
         x2="37.059223"
         y2="36.190479"
         stroke="#ffdd00"
         id="line1" />
      <path
         d="m 15.642524,14.273881 12.3334,12.3333 m 3.0833,-6.1667 c 0,1.2148 -0.2393,2.4176 -0.7041,3.5399 -0.4649,1.1222 -1.1462,2.1419 -2.0052,3.0009 -0.8589,0.8589 -1.8786,1.5403 -3.0009,2.0051 -1.1222,0.4649 -2.3251,0.7041 -3.5398,0.7041 -1.2147,0 -2.4176,-0.2392 -3.5398,-0.7041 -1.1223,-0.4648 -2.142,-1.1462 -3.00094,-2.0051 -0.85894,-0.859 -1.54029,-1.8787 -2.00515,-3.0009 -0.46485,-1.1223 -0.70411,-2.3251 -0.70411,-3.5399 0,-2.4532 0.97455,-4.806 2.70926,-6.5407 1.73474,-1.73471 4.08744,-2.70926 6.54074,-2.70926 2.4533,0 4.806,0.97455 6.5407,2.70926 1.7347,1.7347 2.7093,4.0875 2.7093,6.5407 z"
         stroke="#ffdd00"
         stroke-linecap="round"
         id="path2"
         style="fill:none" />
      <path
         d="m 23.250224,24.757981 h -1.7885 l -0.4515,-1.8192 h -2.5116 l -0.451,1.8192 h -1.7884 l 2.1418,-8.6334 h 2.7068 z m 2.8756,-8.6334 v 8.6334 h -2.0117 v -8.6334 z m -7.3439,5.6726 h 1.945 l -0.9727,-3.9196 z"
         fill="#ffdd00"
         id="path3" />
    </g>
  </g>
</svg>
