<?xml version="1.0" encoding="UTF-8" standalone="no"?>
<!-- Created with Inkscape (http://www.inkscape.org/) -->

<svg
   width="157.37343mm"
   height="225.31361mm"
   viewBox="0 0 157.37343 225.31361"
   version="1.1"
   id="svg1"
   xml:space="preserve"
   xmlns="http://www.w3.org/2000/svg"
   xmlns:svg="http://www.w3.org/2000/svg"><defs
     id="defs1" /><g
     id="layer1"
     transform="translate(-16.918822,-16.952333)"><path
       style="fill:#000000"
       d="m 26.858887,240.42785 c 14.15309,-8.87911 21.30443,-9.70513 33.50919,-3.87052 16.46606,7.87178 19.98679,7.21215 32.3576,-6.0624 10.438853,-11.20145 15.333783,-11.06596 31.353573,0.86787 15.93267,11.86893 17.21664,11.93945 44.39086,2.43804 4.96794,-1.73703 4.96794,-1.73703 4.89479,2.13339 -0.10979,5.8088 0.18998,5.74144 -25.97275,5.83605 -18.44538,0.0667 -20.13498,0.0364 -20.76979,-0.37279 -0.38007,-0.24497 -2.47697,-1.77967 -4.65978,-3.41044 -9.54777,-7.13313 -14.60453,-9.58173 -19.29833,-9.34471 -3.800253,0.19191 -5.362463,1.36306 -13.468193,10.09677 -2.86282,3.08461 -21.60407,4.61244 -32.5193,2.65105 -3.2388,-0.58199 -8.60065,-0.58489 -11.77419,-0.006 -6.96603,1.26988 -20.45266,0.55536 -18.04368,-0.95594 z m 64.54432,1.1605 c 0,-0.69979 4.74262,-5.07083 6.26211,-5.77148 3.970723,-1.83095 8.722263,-0.50042 16.227473,4.54404 2.24896,1.51158 2.24896,1.51158 -4.63021,1.34811 -8.64806,-0.20552 -9.21231,-0.20548 -13.956773,8.4e-4 -2.7662,0.1203 -3.9026,0.0849 -3.9026,-0.12151 z m -19.84375,-3.75302 c -2.73444,-0.72062 -5.69009,-2.18176 -9.12813,-4.51255 -1.60073,-1.0852 -4.42249,-3.00342 -6.27059,-4.26271 -8.77601,-5.97996 -13.46752,-6.65975 -20.83593,-3.01911 -2.24145,1.10747 -3.50844,1.91464 -11.12577,7.0879 -7.195934,4.88709 -6.616304,4.87134 -6.603783,0.17944 0.0108,-4.04604 0.0108,-4.04604 1.785937,-5.15362 0.976327,-0.60917 3.309956,-2.39511 5.185856,-3.96875 9.39686,-7.88283 11.88563,-9.26406 16.25163,-9.01943 4.32486,0.24232 6.86886,1.8816 17.08363,11.00815 14.46099,12.9204 16.81102,12.60963 35.62235,-4.71074 16.195013,-14.91141 20.701153,-15.41535 35.581673,-3.97921 14.18489,10.90153 17.54111,11.05465 37.96771,1.73228 6.96416,-3.17833 6.35,-3.28841 6.35,1.13823 0,3.88818 0,3.88818 -4.0349,5.44593 -2.21919,0.85676 -5.70177,2.20338 -7.73906,2.99249 -17.17544,6.6526 -20.87335,6.22106 -34.54861,-4.03179 -16.50038,-12.37095 -20.37109,-12.19198 -34.375353,1.58941 -11.49406,11.31115 -14.87084,13.14324 -21.16666,11.48408 z m -3.64042,-6.44793 c -3.04611,-1.41816 -7.00147,-4.96428 -12.84709,-11.51785 -14.34645,-16.08393 -18.78189,-17.30769 -27.49134,-7.58502 -4.60968,5.14594 -8.554872,8.62532 -9.797713,8.64087 -1.086105,0.0136 -0.0796,-7.58853 1.058333,-7.99357 2.638246,-0.93906 4.33171,-2.7644 8.09821,-8.72885 6.72474,-10.64898 11.64221,-8.86566 25.69021,9.31657 15.46052,20.01044 16.27317,19.98688 41.2871,-1.19707 17.234003,-14.59524 21.384423,-16.86589 27.770833,-15.19313 3.68472,0.96511 5.89802,2.21407 13.50417,7.62033 11.96208,8.50234 16.82676,8.61642 29.50104,0.69185 3.93269,-2.45892 8.18261,-4.88657 8.55456,-4.88657 2.73465,0 -0.38246,7.94965 -3.78538,9.65395 -2.17914,1.09139 -4.88781,2.49282 -6.01927,3.11429 -13.47281,7.40014 -18.13127,7.13554 -30.26673,-1.71912 -16.28722,-11.88399 -19.7764,-11.64337 -36.108083,2.49008 -13.23622,11.45463 -14.57218,12.54896 -18.2011,14.90914 -4.78508,3.11212 -7.91838,3.79446 -10.94775,2.3841 z m -1.19748,-7.30628 c -3.48338,-0.82923 -7.48501,-5.14529 -15.92484,-17.17616 -10.42924,-14.86674 -15.23501,-18.80286 -20.00815,-16.38746 -1.86252,0.94251 -2.54193,1.98901 -5.10394,7.86164 -2.38962,5.47745 -7.72342,9.48016 -7.218382,5.41697 0.08592,-0.69122 0.227265,-2.03068 0.314108,-2.97656 0.260183,-2.83389 0.24889,-2.81221 1.64534,-3.15826 2.992144,-0.74146 4.039164,-2.12537 5.598304,-7.39959 3.87498,-13.10818 10.20899,-10.26692 24.42134,10.95472 15.4924,23.133 15.76642,23.14373 41.85928,1.63967 26.485393,-21.82756 28.861113,-22.60956 41.771173,-13.7496 10.15225,6.96733 12.5718,8.16255 17.12766,8.46085 4.57355,0.29945 6.98012,-0.7662 13.43916,-5.951 7.92056,-6.35798 8.78144,-6.59236 8.78137,-2.39083 -7e-5,3.52425 -7e-5,3.52425 -1.78594,4.38587 -0.98223,0.47389 -3.33369,1.98536 -5.22546,3.35882 -7.40913,5.37918 -9.10291,6.3325 -12.50646,7.03911 -4.18629,0.86912 -9.36499,-0.74621 -15.1425,-4.72321 -19.02795,-13.09806 -19.8963,-12.95308 -44.185413,7.37717 -13.63341,11.41131 -21.20898,16.76389 -24.4903,17.30382 -2.05535,0.3382 -2.37864,0.34915 -3.36635,0.11403 z m -2.21284,-12.42899 c -3.16904,-1.6561 -5.69346,-4.73441 -13.99168,-17.06161 -13.973,-20.75723 -20.02489,-23.38384 -24.47077,-10.62069 -1.71627,4.92704 -3.04023,6.57729 -5.893176,7.3455 -1.291864,0.34787 -1.17933,0.50153 -1.786017,-2.43869 -0.659535,-3.19634 -0.683032,-3.04654 0.502804,-3.20559 2.522436,-0.33833 4.507359,-2.09485 6.519789,-5.76955 7.23576,-13.21255 12.28977,-11.55169 26.0813,8.57086 15.73484,22.95794 17.36606,23.0118 41.51974,1.37093 18.689273,-16.74496 23.691133,-19.50536 30.691663,-16.93797 3.50872,1.2868 3.83467,1.48169 13.71168,8.1982 9.47075,6.44026 14.12223,6.26353 25.59558,-0.97252 9.8473,-6.21052 10.43441,-6.38884 10.43441,-3.16928 0,2.59383 0,2.59383 -2.18281,3.70581 -1.20055,0.61159 -4.08782,2.54486 -6.41615,4.29616 -5.29452,3.98236 -6.19503,4.55936 -8.42675,5.39937 -5.7223,2.15387 -11.04292,0.60337 -20.41283,-5.94857 -15.57452,-10.89054 -16.73019,-10.54347 -45.725063,13.73207 -15.77781,13.20974 -21.03842,15.96868 -25.75172,13.50557 z m 4.5372,-12.26102 c -3.52181,-1.1138 -5.7095,-3.30162 -12.726,-12.72677 -13.54981,-18.20121 -15.21209,-19.84375 -20.08234,-19.84375 -3.5166,0 -4.93725,0.99138 -11.41639,7.9668 -2.840556,3.05812 -4.576971,4.36058 -6.65058,4.9885 -2.101128,0.63626 -0.517607,-5.48778 1.717735,-6.64308 1.194377,-0.6173 4.219485,-2.67371 6.722455,-4.5698 12.57678,-9.52735 15.54283,-8.58447 29.47596,9.37008 15.99623,20.61312 17.70746,20.56511 37.72708,-1.05833 15.586933,-16.83566 19.795463,-18.0496 31.985203,-9.22608 13.34875,9.66246 15.98084,9.78695 35.85104,1.69564 4.95425,-2.01741 11.00738,-4.24352 11.53879,-4.24352 1.34217,0 0.0857,4.42501 -1.41848,4.99545 -0.9095,0.34492 -5.16599,2.32626 -9.45885,4.40298 -15.99621,7.73834 -19.32697,7.6052 -31.75,-1.26916 -13.65686,-9.75574 -17.64277,-8.79836 -35.580643,8.5461 -8.08698,7.81946 -10.0423,9.6211 -13.36793,12.31724 -5.87977,4.76684 -9.46574,6.27852 -12.56705,5.2977 z m 4.6302,-12.82658 c -3.53876,-1.16793 -7.05364,-4.47699 -15.49169,-14.58457 -13.41894,-16.07396 -15.72426,-16.61294 -32.2656,-7.54369 -3.867865,2.12067 -7.470744,3.83953 -8.047989,3.83953 -1.051756,0 -0.263218,-5.2148 0.838097,-5.54256 0.618464,-0.18406 3.743852,-1.40428 6.945312,-2.7116 20.78989,-8.4896 21.37412,-8.33353 38.24042,10.21548 8.85203,9.73518 12.70487,11.70447 17.89774,9.14803 2.97455,-1.46437 4.80053,-3.75028 10.40009,-13.0197 9.653993,-15.98108 13.963513,-17.04921 27.521123,-6.82121 8.30642,6.26644 13.00964,6.9831 25.13542,3.83005 0.80036,-0.20812 3.36021,-0.85949 5.68854,-1.4475 2.32833,-0.588 5.3049,-1.37138 6.61458,-1.74085 4.87774,-1.37603 15.3623,-4.08061 15.81956,-4.08079 1.61927,-6.3e-4 0.36361,4.33896 -1.39976,4.83764 -2.33658,0.66079 -6.4351,1.92441 -9.78959,3.01825 -24.79658,8.08576 -27.18604,8.11469 -37.83541,0.45813 -7.61457,-5.47463 -10.52158,-6.84007 -14.45112,-6.78779 -5.08151,0.0676 -8.28996,2.81396 -17.102863,14.6396 -9.41424,12.63255 -13.74008,15.93607 -18.71686,14.29355 z m 4.10105,-13.10259 c -3.1496,-0.99608 -5.60252,-2.98562 -14.54424,-11.79669 -13.68458,-13.48461 -15.03496,-13.78135 -34.27139,-7.53092 -2.11005,0.68561 -4.72943,1.5221 -5.82083,1.85886 -1.091407,0.33677 -2.568845,0.79734 -3.283197,1.0235 -2.317389,0.73366 -2.273054,0.77715 -2.273054,-2.2296 0,-2.64079 0,-2.64079 0.727604,-2.81124 0.400183,-0.0937 2.513542,-0.6344 4.696357,-1.20143 28.95263,-7.52113 28.46241,-7.5916 42.90143,6.16715 15.14352,14.43006 20.06402,14.3691 24.81768,-0.30744 3.09705,-9.56189 4.02778,-11.3191 6.79229,-12.82373 3.512013,-1.91148 7.705783,-0.55461 14.906903,4.82302 9.32205,6.96149 11.72271,7.14767 34.93586,2.70945 4.75474,-0.90908 17.90339,-3.46349 21.89836,-4.25422 2.14868,-0.4253 3.96438,-0.77327 4.03489,-0.77327 0.42664,0 0.10069,5.00002 -0.33481,5.1361 -0.25466,0.0796 -1.59412,0.38066 -2.97656,0.66909 -1.38245,0.28843 -4.18042,0.89079 -6.21771,1.33856 -2.03729,0.44778 -4.77573,1.04389 -6.08542,1.32469 -1.30969,0.28081 -3.75047,0.81266 -5.42396,1.1819 -20.98173,4.6294 -25.1685,4.91943 -30.67586,2.12496 -1.63266,-0.82842 -2.71804,-1.56175 -8.31714,-5.61944 -10.37325,-7.51753 -15.121443,-5.87071 -21.156933,7.33789 -3.08758,6.75713 -3.66254,7.89062 -4.98606,9.82957 -2.44719,3.58513 -5.78231,4.94972 -9.34421,3.82324 z m 3.96875,-12.49631 c -3.96268,-1.00305 -7.60801,-3.50041 -15.21355,-10.42259 -13.58051,-12.3603 -13.94809,-12.4223 -39.15833,-6.60512 -5.530564,1.27616 -9.318424,2.11288 -9.565076,2.11288 -2.244092,0 0.174543,-6.31393 2.619766,-6.83899 1.564349,-0.33591 5.22552,-1.1334 8.13594,-1.77219 23.21169,-5.09464 25.07489,-4.86766 35.19854,4.28805 11.6463,10.53277 15.08138,12.81494 19.32566,12.83942 4.23276,0.0244 5.87012,-2.47259 8.05226,-12.27987 1.93158,-8.68119 3.84016,-11.31416 8.19958,-11.31167 3.525033,0.002 6.323483,1.43671 12.822843,6.57397 5.18524,4.09855 10.33399,5.33 17.86882,4.27375 5.01223,-0.70262 14.50453,-2.34519 26.85521,-4.64709 7.78814,-1.45155 15.41079,-2.76705 16.03358,-2.76705 0.75071,0 0.77554,5.96322 0.0258,6.20117 -0.26238,0.0833 -2.19714,0.45578 -4.29948,0.82779 -2.10234,0.37201 -5.42977,0.96737 -7.3943,1.32302 -15.15391,2.74339 -29.48886,5.16315 -32.25749,5.4451 -6.95705,0.70848 -11.63321,-0.50403 -16.64481,-4.31596 -13.199453,-10.03979 -18.209543,-9.08525 -21.061213,4.01263 -2.41726,11.10264 -4.73809,14.27919 -9.54378,13.06275 z m -2.9479,-13.8197 c -3.85276,-1.34118 -6.30832,-3.13115 -12.41351,-9.04872 -12.90362,-12.50712 -12.27998,-12.40144 -40.20109,-6.81243 -4.365627,0.87388 -8.056565,1.60693 -8.202086,1.629 -0.161418,0.0245 -0.293456,-1.27521 -0.338634,-3.33329 -0.04073,-1.85539 -0.0027,-3.37344 0.08446,-3.37344 0.08718,0 2.442221,-0.4241 5.23342,-0.94243 2.79121,-0.51834 7.03945,-1.2958 9.44055,-1.7277 2.40109,-0.43189 5.61578,-1.0135 7.14375,-1.29247 13.04277,-2.38128 14.98477,-1.68652 25.9215,9.2735 13.25851,13.28675 18.20804,13.00251 25.67495,-1.47444 4.87135,-9.44465 6.71068,-11.87924 9.862953,-13.05493 4.27236,-1.59345 7.51648,-0.1782 13.8659,6.04902 7.20488,7.06622 9.41391,7.70959 20.98303,6.11127 2.25557,-0.31162 6.83947,-0.91721 10.18645,-1.34576 6.79796,-0.87041 11.93564,-1.54773 19.1823,-2.52888 8.9973,-1.21818 8.20208,-1.3429 8.20208,1.28639 0,2.15693 -0.0327,2.28836 -0.59531,2.39484 -0.32743,0.062 -2.67891,0.43325 -5.22552,0.82508 -2.54662,0.39182 -6.35662,0.99357 -8.46667,1.33722 -4.13029,0.67266 -11.18155,1.78542 -18.38854,2.90189 -2.47386,0.38323 -5.9645,0.93007 -7.75699,1.21519 -9.20047,1.46345 -14.07055,0.3506 -19.47492,-4.45017 -12.10225,-10.75057 -17.176993,-9.64548 -22.111623,4.81509 -3.835,11.2382 -6.49432,13.67385 -12.60644,11.54617 z m -3.13752,-13.6237 c -1.92055,-0.49931 -3.78146,-1.52671 -5.99183,-3.30809 -1.86383,-1.50209 -2.58371,-2.25136 -7.25381,-7.54993 -6.95637,-7.89251 -10.54333,-9.06004 -22.06565,-7.1822 -1.24275,0.20254 -4.64079,0.74407 -7.55121,1.2034 -2.91042,0.45933 -6.95854,1.11263 -8.99583,1.45178 -6.91173,1.1506 -6.217711,1.44649 -6.217711,-2.65083 0,-3.21981 0.04505,-3.56701 0.463021,-3.56882 0.676396,-0.003 4.032673,-0.41888 9.59115,-1.18863 26.4115,-3.65755 26.92228,-3.56623 34.34358,6.13999 7.88751,10.31598 13.24844,12.20562 20.67745,7.28847 1.56856,-1.03821 3.80865,-3.23916 12.55219,-12.33289 14.017963,-14.57938 18.496473,-14.95425 27.136253,-2.2714 5.29943,7.77935 6.90811,8.46487 18.66448,7.95364 9.70504,-0.42202 19.66538,-0.80186 25.4,-0.96863 2.61938,-0.0762 5.26852,-0.19173 5.88698,-0.25679 1.12448,-0.1183 1.12448,-0.1183 1.12448,1.82197 0,1.94026 0,1.94026 -2.57969,2.11621 -1.41883,0.0968 -4.30609,0.35188 -6.41614,0.56689 -2.11006,0.21502 -7.94412,0.75385 -12.96459,1.1974 -5.02047,0.44354 -11.27125,1.05204 -13.89062,1.35222 -10.55991,1.21015 -13.26531,0.15723 -19.47044,-7.57774 -9.2612,-11.54448 -14.55331,-10.22145 -26.449263,6.61234 -6.8538,9.69873 -10.85357,12.48773 -15.9928,11.15164 z m -5.61262,-14.45883 c -2.94145,-1.04582 -5.21017,-3.21969 -9.11286,-8.73188 -6.87132,-9.7051 -5.85685,-9.50679 -33.95785,-6.63799 -10.279341,1.04941 -9.392711,1.32266 -9.392711,-2.89476 0,-3.69589 0,-3.69589 2.711979,-3.70189 1.491589,-0.003 4.200262,-0.12418 6.019272,-0.26861 28.44857,-2.25888 28.00116,-2.35811 33.87628,7.51385 7.02391,11.80227 11.76578,11.18861 32.40184,-4.19322 18.746583,-13.97343 23.277913,-16.41458 28.023283,-15.09687 3.35927,0.93282 5.35233,3.22844 8.51696,9.8099 3.94205,8.19825 5.99334,10.1062 11.49642,10.6931 1.37432,0.14657 4.63127,0.45949 7.23768,0.69538 2.6064,0.23588 5.94015,0.58943 7.40833,0.78567 1.46818,0.19623 5.8841,0.72807 9.81316,1.18186 3.92907,0.4538 7.41164,0.87926 7.73907,0.94547 2.096,0.42386 0.63431,3.58016 -1.5875,3.42798 -1.20055,-0.0822 -8.19547,-0.3258 -15.54427,-0.54125 -7.34881,-0.21546 -14.84974,-0.4402 -16.66875,-0.49942 -6.48016,-0.211 -8.98151,-1.97341 -12.83555,-9.04373 -7.71841,-14.15962 -12.21011,-13.6607 -32.275913,3.58511 -14.17426,12.18224 -18.88617,14.74288 -23.86887,12.9713 z m -3.32118,-13.76739 c -3.01196,-0.75297 -4.84887,-2.66211 -7.5821,-7.8802 -4.33134,-8.26908 -5.49406,-8.79783 -18.20005,-8.27654 -20.206667,0.82902 -23.197231,0.76052 -22.977757,-0.52633 0.109502,-0.64204 0.350375,-2.15391 0.535274,-3.3597 0.1849,-1.20579 0.381501,-2.23432 0.436891,-2.28564 0.05539,-0.0513 7.306282,-0.13631 16.113092,-0.1889 18.12178,-0.1082 18.32232,-0.0784 20.70426,3.07939 0.99658,1.32119 1.22675,1.75582 3.43283,6.48229 3.42162,7.33076 7.64098,8.22788 16.86823,3.58653 4.88466,-2.457 8.56932,-4.65422 22.86154,-13.63267 C 124.69601,66.10092 128.68327,66.0627 134.024,81.9578 c 2.66377,7.92793 5.36628,10.68464 11.08962,11.31201 3.54349,0.38842 6.40103,1.11371 12.96238,3.29005 7.35996,2.44124 10.25493,3.2464 13.42981,3.73513 1.91823,0.29529 1.91823,0.29529 1.91823,2.64602 0,2.35073 0,2.35073 -0.72761,2.23034 -4.87411,-0.80642 -11.063,-2.13439 -20.33022,-4.36235 -1.17707,-0.28298 -3.61785,-0.69925 -5.42396,-0.92505 -9.31078,-1.16403 -11.12244,-2.50387 -14.29992,-10.57568 -6.6162,-16.80732 -9.80653,-16.61016 -38.061973,2.35224 -17.90597,12.01681 -23.45752,14.73452 -27.85366,13.6355 z M 170.51831,94.03891 c -3.02857,-0.55211 -6.2312,-1.53724 -11.62316,-3.5753 -6.68053,-2.52512 -8.62817,-3.09265 -12.18846,-3.55166 -3.99707,-0.51533 -4.41448,-0.61069 -5.85904,-1.33852 -2.49584,-1.25752 -4.50297,-4.5115 -6.57877,-10.6656 -5.38543,-15.96612 -8.42716,-15.73033 -38.896923,3.01532 -28.0914,17.28242 -31.7819,17.94347 -36.8844,6.60685 -1.78163,-3.95838 -2.6822,-5.32476 -4.21827,-6.40005 -2.65743,-1.86027 -1.78532,-1.7757 -19.26718,-1.86854 -17.968713,-0.0954 -15.887609,0.45814 -16.234687,-4.31844 -0.165195,-2.27345 -0.165195,-2.27345 10.901437,-2.51354 24.54746,-0.53255 24.04379,-0.65228 28.44744,6.76249 7.29194,12.27802 9.69506,11.97779 37.12336,-4.63781 30.740993,-18.62238 33.406763,-18.84767 38.937643,-3.29081 3.23647,9.10331 5.06307,10.93924 11.73007,11.79003 4.25121,0.5425 5.37287,0.80531 13.49375,3.16165 3.71078,1.07672 8.38399,2.28347 10.3849,2.68167 3.63802,0.72399 3.63802,0.72399 3.63802,4.64219 0,4.47699 0.32247,4.08856 -2.90573,3.50007 z m -0.40156,-17.73566 c -2.56508,-0.38296 -9.97212,-1.67113 -14.33303,-2.49269 -1.48024,-0.27887 -4.51633,-0.69319 -6.74687,-0.92072 -10.24456,-1.045 -11.27751,-1.8412 -14.87887,-11.46862 -3.22901,-8.63202 -5.67758,-11.13574 -10.57616,-10.81434 -4.08407,0.26796 -8.71872,2.5839 -27.945283,13.96431 -24.39755,14.44118 -26.9307,14.73618 -36.28917,4.22612 -7.29113,-8.18833 -8.83674,-8.54415 -29.32749,-6.75166 -11.759403,1.02869 -12.295174,0.90247 -12.37653,-2.91572 -0.0734,-3.44484 -0.0734,-3.44484 5.42396,-4.04176 3.02355,-0.3283 7.46189,-0.87939 9.86298,-1.22463 16.1861,-2.32731 16.57752,-2.22077 29.98671,8.16164 10.28459,7.96312 12.44821,7.50784 40.127873,-8.44394 21.93636,-12.64191 25.81969,-12.49286 31.10462,1.19383 3.2988,8.54308 4.83449,9.62392 14.27142,10.04429 25.62777,1.14161 25.00313,0.97492 25.00313,6.67234 0,4.826 -0.0364,5.23547 -0.46302,5.20266 -0.25466,-0.0196 -1.53459,-0.19558 -2.84427,-0.39111 z M 75.548097,57.12772 c -3.81138,-0.74778 -7.63951,-2.54179 -15.49802,-7.26295 -11.0057,-6.61192 -14.92127,-7.09408 -31.27951,-3.85181 -12.320263,2.44193 -11.186111,2.63473 -11.186111,-1.9016 0,-3.84738 0,-3.84738 1.124479,-4.023 0.618464,-0.0966 2.910417,-0.65456 5.093232,-1.23993 19.67084,-5.27513 21.8027,-5.11192 39.70841,3.04004 17.53256,7.98208 21.51355,7.86187 37.829623,-1.14228 22.66113,-12.50572 27.16066,-12.49849 32.68382,0.0525 2.41331,5.48406 4.57687,7.35566 8.74745,7.56705 2.93081,0.14855 5.48591,-0.13932 23.11194,-2.60392 3.05594,-0.42731 6.00274,-0.83896 6.54844,-0.91479 0.99219,-0.13788 0.99219,-0.13788 0.99219,5.11861 0,5.98238 2.20526,5.17465 -16.40417,6.0084 -18.30215,0.81998 -19.3295,0.50023 -22.36297,-6.96032 -5.87823,-14.457 -9.12289,-14.74938 -30.78972,-2.77454 C 86.031627,56.09654 80.713797,58.14122 75.548097,57.12773 Z M 141.07262,40.21983 c -3.20281,-0.41586 -4.9325,-2.1771 -7.79762,-7.93986 -4.88855,-9.83257 -9.05903,-10.01614 -27.05513,-1.19086 -17.973343,8.81412 -20.784593,8.95362 -39.964943,1.98304 -22.52806,-8.18722 -25.46086,-8.40155 -41.40518,-3.02591 -3.643928,1.22855 -6.769319,2.23373 -6.945309,2.23373 -0.691861,0 -0.424094,-7.60528 0.275331,-7.82012 0.327422,-0.10058 2.678906,-1.01453 5.225518,-2.031 9.08613,-3.62669 10.06415,-3.88938 15.215,-4.08665 4.50611,-0.17257 7.10877,0.0979 11.89462,1.2362 3.89477,0.92634 5.54207,1.40119 17.47267,5.03664 20.25011,6.17053 24.09521,6.04409 40.348963,-1.32676 15.67625,-7.10897 20.18229,-6.67879 25.00312,2.38699 4.4982,8.45905 8.12725,8.76021 29.76563,2.47009 3.81133,-1.10792 9.81969,-2.74456 10.07575,-2.74456 1.33701,0 0.0961,9.16895 -1.27836,9.44601 -0.83674,0.16866 -3.18822,0.67624 -5.22552,1.12795 -16.43163,3.64323 -22.49605,4.64867 -25.60454,4.24507 z m -2.71179,-15.83785 c -1.92437,-0.91039 -3.55735,-2.64882 -4.97365,-5.29481 -1.11563,-2.08426 1.94138,-2.88709 4.92396,-1.29314 1.60431,0.85738 7.25295,0.85097 10.35804,-0.0118 4.59869,-1.2777 23.76181,-0.77125 19.86007,0.52487 -20.59315,6.84083 -26.17388,7.96459 -30.16842,6.07483 z M 86.772997,20.39879 c -3.93865,-0.55795 -5.21512,-0.79568 -9.26042,-1.72471 -6.57815,-1.51071 -7.25093,-1.42569 11.48733,-1.4517 9.37396,-0.013 16.989993,0.0299 16.924493,0.0954 -2.18508,2.18508 -13.090753,3.93953 -19.151403,3.08098 z"
       id="path1" /></g></svg>
