<?xml version="1.0" encoding="UTF-8"?><svg id="Ebene_1" xmlns="http://www.w3.org/2000/svg" viewBox="0 0 490 489.99862"><path d="M447.51844,485.6467H42.48644c-37.49881,0-38.08183-36.60109-38.12818-38.1282V42.4889C4.35827,4.9879,40.95938,4.40487,42.48644,4.35841h405.03199c37.49901,0,38.08403,36.60124,38.128,38.13049v405.0296c0,37.49882-36.60074,38.08429-38.128,38.1282" fill="#00a0de" opacity=".7" stroke-width="0"/><path d="M5.48773,469.17084C.13806,458.76426.03317,448.68945.00145,447.51365H.00145V42.48641C-.14247,22.23687,10.41777,10.70575,20.84144,5.48799h0C31.23584.13834,41.31794.03343,42.4767.00145h0l.00974,2.18572V.00145h405.027c20.25203-.14388,31.78066,10.41653,36.99642,20.84005h0c5.35215,10.39455,5.45456,20.47635,5.48854,21.6449h0v405.02725c.15138,20.25208-10.41603,31.78081-20.84205,36.99627h0c-10.39205,5.3521-20.47685,5.45455-21.6429,5.4887H42.04735c-19.97885,0-31.37828-10.48954-36.55962-20.82778h0ZM24.85918,13.24768c-8.2428,4.45188-15.96112,11.98475-16.11724,29.23872h0v405.00771c-.01953.39033.17561,9.36738,4.50559,17.6468h0c4.45193,8.24525,11.9849,15.97331,29.23892,16.1148h404.99802c.40967.01953,9.37688-.17561,17.65614-4.50314h0c8.2453-4.45443,15.97351-11.97271,16.1149-29.23892h0V42.51838c.01948-.40517-.17536-9.38237-4.50284-17.65914h0c-4.45438-8.2428-11.97276-15.96102-29.23922-16.11739H42.44253c-.96357,0-9.60399.33173-17.58335,4.50584h0ZM42.48644,4.3729v-2.18572l-.00974-2.18572.00974,4.37145h0Z" fill="#00a0de" stroke-width="0"/><path d="M245.00261,419.52881c96.23525,0,174.52109-78.29084,174.52109-174.52408s-78.28584-174.52358-174.52109-174.52358S70.48103,148.77198,70.48103,245.00473s78.29084,174.52408,174.52159,174.52408h0Z" fill="#00a0de" stroke-width="0"/><path d="M245.00261,419.52881c96.23525,0,174.52109-78.29084,174.52109-174.52408s-78.28584-174.52358-174.52109-174.52358S70.48103,148.77198,70.48103,245.00473s78.29084,174.52408,174.52159,174.52408h0Z" fill="none" stroke="#1d1d1b"/><path d="M204.83977,140.18796v-16.71741h16.42215v-6.65459h-16.42215v-9.31143h19.02503v-6.65459h-26.96757v39.33801h7.94254ZM233.17623,137.4387c2.66383,2.29763,6.48373,3.4467,11.45768,3.4467,3.41522,0,6.2719-.47811,8.56004-1.43433,2.28814-.95872,4.0592-2.42003,5.31318-4.38843,1.25398-1.9664,1.87847-4.07868,1.87847-6.33285,0-2.48548-.52208-4.57378-1.57122-6.26441-1.04415-1.69063-2.49297-3.02504-4.34697-3.99825-1.849-.97571-4.70817-1.91994-8.57203-2.8322-3.86436-.91226-6.29888-1.78805-7.29906-2.62936-.78786-.66146-1.18054-1.45632-1.18054-2.38856,0-1.01967.41966-1.83201,1.26097-2.44151,1.30544-.94673,3.11297-1.42234,5.42059-1.42234,2.23468,0,3.91282.44414,5.02991,1.32942,1.12009.88578,1.847,2.3396,2.18822,4.35946l7.94304-.34922c-.1269-3.61256-1.43433-6.50071-3.9323-8.66695-2.49347-2.16374-6.21095-3.24686-11.14843-3.24686-3.02454,0-5.60344.45613-7.7427,1.36839-2.13676.91226-3.77393,2.24168-4.91051,3.98626-1.13408,1.74408-1.70262,3.61756-1.70262,5.62043,0,3.11247,1.20752,5.75182,3.62255,7.91556,1.7171,1.53925,4.70318,2.83719,8.96221,3.89084,3.30781.82483,5.42809,1.39537,6.35983,1.7176,1.35889.48311,2.31012,1.05115,2.85668,1.70511.54606.65147.81933,1.44433.81933,2.37357,0,1.44882-.64897,2.71529-1.94642,3.79791-1.29545,1.08112-3.22488,1.62268-5.7818,1.62268-2.41504,0-4.33448-.60751-5.75682-1.82502-1.42234-1.21451-2.36608-3.11996-2.8297-5.71535l-7.72822.75139c.51708,4.40042,2.11028,7.7497,4.77662,10.05033h0ZM275.11463,140.18796v-11.88733l6.44026-6.57415,10.8162,18.46149h10.27465l-15.6168-24.01597,14.81196-15.32204h-10.67982l-16.04645,17.4683v-17.4683h-7.94254v39.33801h7.94254Z" fill="#1d1d1b" stroke-width="0"/><path d="M233.5884,162.84254c.40967-.28777.9807-.43165,1.71261-.43165,1.08312,0,1.81952.16836,2.2102.50509.39018.33673.58502.90027.58502,1.69063v.40967c-.7414.31225-2.07331.64897-3.99575,1.01018-1.42434.27278-2.51495.59252-3.27134.95822-.75589.3662-1.34391.89327-1.76357,1.58121s-.62949,1.4708-.62949,2.34909c0,1.32692.46113,2.42453,1.38338,3.29332.92225.86829,2.18322,1.30244,3.78342,1.30244.90776,0,1.76157-.17086,2.56142-.51208.80035-.34172,1.55174-.85381,2.25417-1.53725.02948.07844.07794.23931.14638.48311.15587.53656.28777.94173.39518,1.21501h4.06869c-.36071-.7419-.60701-1.43683-.7389-2.0858s-.19784-1.65615-.19784-3.02254l.04396-4.8006c0-1.78555-.18285-3.01255-.54855-3.68101-.3662-.66846-.99769-1.22001-1.89546-1.65415s-2.26416-.65147-4.09817-.65147c-2.01986,0-3.54212.36121-4.56679,1.08312-1.02467.72241-1.74658,1.83451-2.16624,3.33729l3.73246.67345c.25379-.72241.58552-1.227.99519-1.51527h0ZM238.09623,168.51443c0,.9857-.05346,1.65415-.16087,2.00537-.15587.53656-.48311.99019-.9807,1.36089-.67295.4881-1.38038.7319-2.12227.7319-.66346,0-1.21002-.20983-1.63917-.62949-.42915-.41916-.64398-.91725-.64398-1.49279,0-.58552.26828-1.06863.80485-1.44882.35121-.23431,1.09761-.47361,2.23968-.71742,1.14157-.2438,1.97589-.45363,2.50247-.62949v.81983h0ZM249.83269,175.15952v-2.28364c.62449.86879,1.37089,1.52476,2.23418,1.9689.8638.44414,1.73709.66596,2.62487.66596,1.80503,0,3.34228-.71742,4.60575-2.15175s1.89296-3.47867,1.89296-6.13251c0-2.56641-.6195-4.53481-1.85899-5.9057-1.23899-1.37138-2.80522-2.05683-4.69818-2.05683-1.73709,0-3.23937.72241-4.50783,2.16624v-7.72772h-4.11066v21.45705h3.8179ZM251.07667,163.55995c.65347-.76588,1.4733-1.14907,2.459-1.14907,1.00468,0,1.82951.39268,2.47349,1.17854.64398.78536.96571,2.06582.96571,3.84188,0,1.66864-.31674,2.89065-.95622,3.66652-.63898.77587-1.41485,1.16355-2.32211,1.16355-1.18054,0-2.12727-.54656-2.83969-1.63917-.50709-.77087-.76088-1.96141-.76088-3.5716,0-1.56123.32673-2.72478.9807-3.49066h0Z" fill="#1d1d1b" stroke-width="0"/><path d="M204.30321,191.39632h-22.24741c-3.12246,8.71841-8.87978,16.34421-17.27146,22.88189-8.39168,6.53768-16.16585,10.97707-23.32054,13.31917v24.88427c13.59445-4.49335,25.40134-11.41871,35.4202-20.7861v103.33647h27.4192v-143.6357h0ZM318.57029,200.5199c-7.12271-6.08155-16.11939-9.12358-26.97956-9.12358-15.48591,0-28.07317,5.79129-37.76229,17.36838-9.69462,11.58008-14.53918,30.47822-14.53918,56.6949,0,25.56521,4.64972,43.95825,13.95365,55.17963,9.29894,11.22138,21.17428,16.83181,35.61554,16.83181,13.46555,0,24.49158-4.4249,33.0786-13.27021,8.58652-8.8503,12.88003-20.58876,12.88003-35.22536,0-13.79228-4.08368-25.04813-12.24604-33.76155-8.16686-8.71841-17.97338-13.07787-29.41908-13.07787-10.14825,0-18.63734,4.03472-25.46779,12.10216,1.03915-16.45862,3.5616-27.28981,7.56235-32.49558,4.00075-5.20327,8.89377-7.80615,14.68506-7.80615,4.35696,0,7.90407,1.30244,10.63585,3.90283,2.73228,2.60288,4.42041,6.6356,5.07437,12.09966l26.54092-2.92712c-1.95191-11.57759-6.48922-20.4084-13.61243-26.49196h0ZM275.49032,268.53309c3.63954-4.13214,8.09891-6.19596,13.36813-6.19596,5.46406,0,10.01636,2.16124,13.66089,6.48872,3.63954,4.32249,5.46406,11.13844,5.46406,20.44238,0,9.04065-1.69312,15.54386-5.07387,19.51563-3.38625,3.96627-7.61131,5.95216-12.68518,5.95216-5.26922,0-9.95291-2.42503-14.05107-7.26959-4.09817-4.84956-6.147-11.72896-6.147-20.63772,0-8.06944,1.81952-14.16798,5.46406-18.29562h0Z" fill="#1d1d1b" stroke-width="0"/><path d="M160.36444,362.69003h2.28314v12.30949h4.11266v-12.30949h3.074v-3.23487h-3.074v-1.09761c0-.79036.12939-1.32692.38818-1.60519.25829-.27777.68544-.41466,1.28046-.41466.60501,0,1.2345.07794,1.88796.23431l.55655-2.86867c-1.12209-.35121-2.26866-.52707-3.4397-.52707-1.14157,0-2.0858.19984-2.8322.60501s-1.25898.93174-1.53675,1.57572c-.27827.64398-.41716,1.61968-.41716,2.92762v1.17055h-2.28314v3.23487h0ZM176.08366,370.19842c0-2.64435.11491-4.38094.34422-5.21026.22931-.82983.54406-1.40536.94423-1.7226.39967-.31674.88778-.47312,1.46331-.47312.59552,0,1.23949.22432,1.93193.67345l1.27346-3.58608c-.86829-.51708-1.77106-.77587-2.7078-.77587-.66346,0-1.25598.16587-1.77805.4976s-1.1101,1.01967-1.76407,2.06382v-2.2102h-3.81989v15.54436h4.11266v-4.8011h0ZM191.81836,371.75016c-.43914.35121-.9807.52657-1.62468.52657-.94673,0-1.73709-.34122-2.37107-1.01967-.63448-.67795-.96621-1.62468-.99569-2.84419h10.30412c.05895-3.15194-.58053-5.49353-1.91744-7.02079-1.33641-1.52676-3.16143-2.28814-5.47405-2.28814-2.05883,0-3.76144.72691-5.10785,2.18572-1.3469,1.45881-2.01986,3.47867-2.01986,6.05458,0,2.15675.51208,3.94229,1.53675,5.35714,1.29794,1.76606,3.29832,2.64935,6.00112,2.64935,1.70761,0,3.12946-.39518,4.26653-1.18054,1.13658-.78586,1.9684-1.92743,2.49547-3.43021l-4.09817-.68794c-.22432.78087-.55655,1.3469-.99519,1.69812h0ZM186.90036,365.89542c-.00999-1.12209.27777-2.00987.8633-2.66383s1.32742-.9807,2.22469-.9807c.83932,0,1.55174.30725,2.13726.92725.58552.6195.89277,1.52676.92175,2.71729h-6.147ZM204.59597,357.34787v-3.80591h-4.11316v3.80591h4.11316ZM204.59597,374.99952v-15.54436h-4.11316v15.54436h4.11316ZM208.41586,376.52178c0,1.38537.55155,2.52695,1.65415,3.42971,1.1026.90227,2.97108,1.3564,5.60544,1.3564,1.39537,0,2.54943-.14638,3.46169-.43914s1.64167-.69793,2.18822-1.21501.97071-1.2295,1.27346-2.13676c.30225-.90776.45363-2.27865.45363-4.11316v-13.94866h-3.84937v2.18123c-1.24898-1.68813-2.83469-2.53244-4.75663-2.53244-1.86398,0-3.42272.68794-4.6767,2.06382-1.25398,1.37588-1.88047,3.36626-1.88047,5.97164,0,2.07831.47811,3.8154,1.43433,5.21076,1.21951,1.76606,2.87366,2.64935,4.96147,2.64935,1.87348,0,3.42521-.83932,4.65471-2.51745v2.26866c0,.91226-.06345,1.54624-.19035,1.88796-.18535.47811-.45863.82433-.81983,1.03915-.53656.32224-1.34141.48311-2.41504.48311-.83882,0-1.45382-.14638-1.844-.43914-.28327-.20483-.46362-.58053-.54156-1.12708l-4.69818-.57104c-.00999.19534-.01499.36121-.01499.49809h0ZM213.06309,363.39745c.63898-.76588,1.45132-1.14657,2.43702-1.14657,1.01467,0,1.85399.39018,2.51745,1.17105.66346.78037.99519,1.97589.99519,3.58608,0,1.54175-.34622,2.7028-1.03915,3.48816s-1.54175,1.18054-2.54693,1.18054c-.93674,0-1.7246-.38519-2.36358-1.15106-.63898-.76638-.95872-1.9714-.95872-3.62006,0-1.57122.31974-2.74227.95872-3.50815h0ZM235.12764,371.75016c-.43914.35121-.9807.52657-1.62468.52657-.94623,0-1.73709-.34122-2.37107-1.01967-.63448-.67795-.96621-1.62468-.99519-2.84419h10.30412c.05845-3.15194-.58053-5.49353-1.91744-7.02079-1.33691-1.52676-3.16143-2.28814-5.47405-2.28814-2.05883,0-3.76144.72691-5.10835,2.18572-1.34641,1.45881-2.01986,3.47867-2.01986,6.05458,0,2.15675.51258,3.94229,1.53675,5.35714,1.29794,1.76606,3.29832,2.64935,6.00112,2.64935,1.70761,0,3.12995-.39518,4.26653-1.18054,1.13708-.78586,1.9689-1.92743,2.49547-3.43021l-4.09817-.68794c-.22432.78087-.55605,1.3469-.99519,1.69812h0ZM230.20964,365.89542c-.00949-1.12209.27827-2.00987.8638-2.66383s1.32692-.9807,2.22469-.9807c.83932,0,1.55124.30725,2.13676.92725.58552.6195.89277,1.52676.92225,2.71729h-6.1475ZM243.39742,376.52178c0,1.38537.55105,2.52695,1.65366,3.42971,1.1026.90227,2.97158,1.3564,5.60594,1.3564,1.39537,0,2.54693-.14638,3.45919-.43914s1.64416-.69793,2.19072-1.21501c.54606-.51708.97071-1.2295,1.27296-2.13676.30275-.90776.45413-2.27865.45413-4.11316v-13.94866h-3.84937v2.18123c-1.24898-1.68813-2.83469-2.53244-4.75713-2.53244-1.86348,0-3.42272.68794-4.6762,2.06382-1.25398,1.37588-1.88097,3.36626-1.88097,5.97164,0,2.07831.47811,3.8154,1.43433,5.21076,1.22001,1.76606,2.87366,2.64935,4.96197,2.64935,1.87348,0,3.42472-.83932,4.65422-2.51745v2.26866c0,.91226-.06345,1.54624-.19035,1.88796-.18535.47811-.45863.82433-.81933,1.03915-.53706.32224-1.34191.48311-2.41504.48311-.83932,0-1.45382-.14638-1.8445-.43914-.28277-.20483-.46312-.58053-.54156-1.12708l-4.69818-.57104c-.00949.19534-.01449.36121-.01449.49809h0ZM248.04414,363.39745c.63948-.76588,1.45182-1.14657,2.43702-1.14657,1.01517,0,1.85399.39018,2.51745,1.17105.66396.78037.99569,1.97589.99569,3.58608,0,1.54175-.34672,2.7028-1.03915,3.48816-.69294.78536-1.54175,1.18054-2.54693,1.18054-.93674,0-1.7246-.38519-2.36408-1.15106-.63898-.76638-.95822-1.9714-.95822-3.62006,0-1.57122.31924-2.74227.95822-3.50815h0ZM270.1092,371.75016c-.43914.35121-.9807.52657-1.62468.52657-.94673,0-1.73709-.34122-2.37157-1.01967-.63398-.67795-.96571-1.62468-.99519-2.84419h10.30412c.05845-3.15194-.58053-5.49353-1.91744-7.02079-1.33641-1.52676-3.16143-2.28814-5.47405-2.28814-2.05883,0-3.76144.72691-5.10785,2.18572-1.3469,1.45881-2.01986,3.47867-2.01986,6.05458,0,2.15675.51208,3.94229,1.53675,5.35714,1.29794,1.76606,3.29832,2.64935,6.00112,2.64935,1.70761,0,3.12696-.39518,4.26403-1.18054,1.13658-.78586,1.9709-1.92743,2.49797-3.43021l-4.09817-.68794c-.22432.78087-.55655,1.3469-.99519,1.69812h0ZM265.1912,365.89542c-.00999-1.12209.27777-2.00987.8633-2.66383s1.32742-.9807,2.22469-.9807c.83932,0,1.55174.30725,2.13726.92725.58552.6195.89277,1.52676.92175,2.71729h-6.147ZM282.41819,374.99952v-2.28364c.62449.86879,1.36639,1.52226,2.22969,1.9664.8638.44414,1.74158.66846,2.62986.66846,1.80503,0,3.33679-.71742,4.60076-2.15175,1.26347-1.43433,1.89796-3.47867,1.89796-6.13251,0-2.56641-.62-4.53731-1.85899-5.9082-1.23949-1.37138-2.80522-2.05433-4.69818-2.05433-1.73709,0-3.23987.72241-4.50833,2.16624v-7.72822h-4.11266v21.45755h3.81989ZM283.66218,363.39745c.65397-.76588,1.4738-1.14657,2.459-1.14657,1.00518,0,1.82951.39018,2.47349,1.17604.64448.78536.96621,2.06832.96621,3.84437,0,1.66864-.32174,2.88815-.96122,3.66402-.63898.77587-1.40985,1.16605-2.31712,1.16605-1.18104,0-2.12727-.54656-2.83969-1.63917-.50759-.77087-.76088-1.96141-.76088-3.5716,0-1.56123.32673-2.72728.9802-3.49316h0ZM305.09025,371.75016c-.43914.35121-.9807.52657-1.62468.52657-.94623,0-1.73659-.34122-2.37107-1.01967-.63448-.67795-.96621-1.62468-.99519-2.84419h10.30412c.05845-3.15194-.58053-5.49353-1.91744-7.02079-1.33691-1.52676-3.16143-2.28814-5.47405-2.28814-2.05883,0-3.76144.72691-5.10835,2.18572-1.34641,1.45881-2.01986,3.47867-2.01986,6.05458,0,2.15675.51258,3.94229,1.53725,5.35714,1.29744,1.76606,3.29782,2.64935,6.00062,2.64935,1.70761,0,3.12746-.39518,4.26403-1.18054,1.13708-.78586,1.9714-1.92743,2.49797-3.43021l-4.09817-.68794c-.22432.78087-.55605,1.3469-.99519,1.69812h0ZM300.17225,365.89542c-.00949-1.12209.27827-2.00987.8638-2.66383s1.32692-.9807,2.22469-.9807c.83932,0,1.55124.30725,2.13676.92725.58552.6195.89277,1.52676.92225,2.71729h-6.1475ZM327.89421,365.33937c0-1.20052-.07844-2.12227-.22931-2.76625-.15138-.64398-.41966-1.22001-.80535-1.7271-.38519-.50759-.95123-.92725-1.70262-1.25398s-1.58071-.4881-2.48798-.4881c-2.05883,0-3.76644.87829-5.12283,2.63486v-2.28364h-3.82039v15.54436h4.11316v-7.04028c0-1.73709.10242-2.92712.31225-3.5716.20983-.64398.60001-1.16106,1.16605-1.55124.56554-.39018,1.20502-.58552,1.91744-.58552.55605,0,1.02916.13689,1.42434.40967.39518.27328.68294.65397.8588,1.14657.17536.4931.26329,1.58071.26329,3.25935v7.93305h4.11316v-9.66014h0Z" fill="#1d1d1b" stroke-width="0"/></svg>