<?xml version="1.0" encoding="UTF-8"?><svg id="Ebene_1" xmlns="http://www.w3.org/2000/svg" viewBox="0 0 490 489.99862"><path d="M447.51844,485.6467H42.48644c-37.49881,0-38.08183-36.60109-38.12818-38.1282V42.4889C4.35827,4.9879,40.95938,4.40487,42.48644,4.35841h405.03199c37.49901,0,38.08403,36.60124,38.128,38.13049v405.0296c0,37.49882-36.60074,38.08429-38.128,38.1282" fill="#e30613" opacity=".7" stroke-width="0"/><path d="M5.48773,469.17084C.13806,458.76426.03317,448.68945.00145,447.51365H.00145V42.48641C-.14247,22.23687,10.41777,10.70575,20.84144,5.48799h0C31.23584.13834,41.31794.03343,42.4767.00145h0l.00974,2.18572V.00145h405.027c20.25203-.14388,31.78066,10.41653,36.99642,20.84005h0c5.35215,10.39455,5.45456,20.47635,5.48854,21.6449h0v405.02725c.15138,20.25208-10.41603,31.78081-20.84205,36.99627h0c-10.39205,5.3521-20.47685,5.45455-21.6429,5.4887H42.04735c-19.97885,0-31.37828-10.48954-36.55962-20.82778h0ZM24.85918,13.24768c-8.2428,4.45188-15.96112,11.98475-16.11724,29.23872h0v405.00771c-.01953.39033.17561,9.36738,4.50559,17.6468h0c4.45193,8.24525,11.9849,15.97331,29.23892,16.1148h404.99802c.40967.01953,9.37688-.17561,17.65614-4.50314h0c8.2453-4.45443,15.97351-11.97271,16.1149-29.23892h0V42.51838c.01948-.40517-.17536-9.38237-4.50284-17.65914h0c-4.45438-8.2428-11.97276-15.96102-29.23922-16.11739H42.44253c-.96357,0-9.60399.33173-17.58335,4.50584h0ZM42.48644,4.3729v-2.18572l-.00974-2.18572.00974,4.37145h0Z" fill="#e30613" stroke-width="0"/><path d="M245.00261,419.52881c96.23525,0,174.52109-78.29084,174.52109-174.52408s-78.28584-174.52358-174.52109-174.52358S70.48103,148.77198,70.48103,245.00473s78.29084,174.52408,174.52159,174.52408h0Z" fill="#e30613" stroke-width="0"/><path d="M245.00261,419.52881c96.23525,0,174.52109-78.29084,174.52109-174.52408s-78.28584-174.52358-174.52109-174.52358S70.48103,148.77198,70.48103,245.00473s78.29084,174.52408,174.52159,174.52408h0Z" fill="none" stroke="#1d1d1b"/><path d="M202.04155,152.6778v-16.71741h16.42265v-6.65459h-16.42265v-9.31143h19.02503v-6.65459h-26.96757v39.33801h7.94254ZM230.37801,149.92854c2.66633,2.29763,6.48673,3.4467,11.45818,3.4467,3.41772,0,6.2714-.47811,8.55754-1.43433,2.29264-.95622,4.0637-2.42003,5.31768-4.38843,1.24898-1.9664,1.87847-4.07868,1.87847-6.33285,0-2.48548-.52707-4.57378-1.57122-6.26441-1.04865-1.69063-2.49797-3.02254-4.34697-3.99825-1.85399-.97571-4.71017-1.91994-8.57453-2.8322-3.86386-.91226-6.29588-1.78805-7.29857-2.62936-.78536-.66146-1.18104-1.45632-1.18104-2.38856,0-1.01967.42216-1.83201,1.26147-2.44151,1.30744-.94673,3.11247-1.42234,5.42059-1.42234,2.23668,0,3.91282.44414,5.03241,1.32942,1.11709.88578,1.8465,2.3396,2.18572,4.35946l7.94504-.34922c-.1269-3.61256-1.43933-6.50071-3.9323-8.66695-2.49797-2.16374-6.21345-3.24686-11.15043-3.24686-3.02254,0-5.60344.45613-7.74071,1.36839-2.13676.91226-3.77593,2.24168-4.91051,3.98626-1.13658,1.74408-1.70511,3.61756-1.70511,5.62043,0,3.11247,1.20752,5.75182,3.62255,7.91556,1.7176,1.53925,4.70567,2.83719,8.96271,3.89084,3.31031.82483,5.43008,1.39537,6.35933,1.7176,1.36139.48311,2.31262,1.05115,2.85918,1.70511s.81734,1.44433.81734,2.37357c0,1.44882-.64647,2.71529-1.94442,3.79791-1.29794,1.08312-3.22488,1.62268-5.7838,1.62268-2.41504,0-4.33248-.60751-5.75482-1.82502-1.42184-1.21451-2.36608-3.11996-2.8322-5.71535l-7.72772.75139c.51958,4.40042,2.11228,7.7522,4.77612,10.05033h0ZM272.3189,152.6778v-11.88733l6.44026-6.57415,10.8162,18.46149h10.27514l-15.6173-24.01597,14.81196-15.32204h-10.67932l-16.04695,17.4683v-17.4683h-7.94254v39.33801h7.94254Z" fill="#1d1d1b" stroke-width="0"/><path d="M231.8563,178.27699c.47811-.33673,1.14407-.50509,1.99788-.50509,1.26347,0,2.12227.19784,2.5784.59052.45413.39268.68294,1.04915.68294,1.9709v.47811c-.8658.3662-2.41953.75888-4.66171,1.17854-1.66365.31924-2.93461.69244-3.8174,1.11959-.88328.42665-1.56872,1.04165-2.05633,1.844-.4906.80285-.7344,1.71511-.7344,2.73977,0,1.54874.53656,2.8297,1.61219,3.84188,1.07612,1.01467,2.54693,1.51976,4.41541,1.51976,1.05864,0,2.05433-.19734,2.98857-.59751.93174-.39768,1.81003-.99519,2.62936-1.79304.03447.09292.09043.28027.17086.56354.18085.62699.33423,1.10011.46113,1.41735h4.74714c-.42216-.8638-.70992-1.67614-.8633-2.43202-.15387-.75638-.22931-1.93243-.22931-3.52763l.05096-5.60095c0-2.08331-.21483-3.51264-.64148-4.29351-.42715-.78037-1.16355-1.42184-2.2102-1.92943-1.04915-.50759-2.64185-.76088-4.78111-.76088-2.35658,0-4.13264.42166-5.32767,1.26347-1.19553.84381-2.03934,2.14176-2.52744,3.89333l4.35446.78536c.29526-.84132.68294-1.42934,1.16106-1.76606h0ZM237.11553,184.89261c0,1.15156-.06295,1.92993-.18735,2.3396-.18335.62699-.56354,1.15606-1.14457,1.58821-.78536.57054-1.61219.85381-2.47599.85381-.77537,0-1.41235-.2443-1.91244-.7344-.50259-.4881-.75139-1.06863-.75139-1.74208,0-.68294.31225-1.24649.93924-1.69013.41017-.27328,1.28096-.55155,2.61288-.83682,1.33192-.28327,2.30513-.52957,2.91963-.7344v.95622h0ZM250.80839,192.6453v-2.66383c.7319,1.01467,1.6002,1.78055,2.60538,2.29763,1.00968.51758,2.02935.77587,3.06351.77587,2.10779,0,3.89833-.83682,5.37163-2.50996,1.4738-1.67364,2.2102-4.0567,2.2102-7.15518,0-2.99307-.72191-5.2887-2.16624-6.8889-1.44882-1.6002-3.27384-2.40005-5.48354-2.40005-2.02485,0-3.77643.84381-5.25972,2.52695v-9.01617h-4.7956v25.03364h4.45438ZM252.26221,179.11381c.76088-.89277,1.7171-1.34191,2.86867-1.34191,1.17105,0,2.13227.45863,2.88366,1.37588.75089.91725,1.12658,2.41004,1.12658,4.48136,0,1.94642-.3707,3.37376-1.11709,4.27852-.74639.90526-1.64916,1.3564-2.7078,1.3564-1.37588,0-2.47848-.63648-3.31281-1.91244-.59002-.89777-.88778-2.28814-.88778-4.16661,0-1.81952.38069-3.17842,1.14657-4.07119h0Z" fill="#1d1d1b" stroke-width="0"/><path d="M208.14509,218.87398h-22.24741c-3.12246,8.71841-8.87928,16.34421-17.27096,22.88189-8.39168,6.53519-16.16635,10.97957-23.32104,13.32167v24.88177c13.59495-4.48835,25.40184-11.41622,35.4202-20.7836v103.33397h27.4192v-143.6357h0Z" fill="#1d1d1b" stroke-width="0"/><path d="M246.50289,300.30426c-3.83988,6.47424-5.75732,13.57796-5.75732,21.32066,0,14.05107,5.10585,25.11108,15.31704,33.17602,8.65047,6.83045,19.48116,10.24567,32.49308,10.24567,13.98763,0,25.18952-4.13264,33.61567-12.39242,8.42565-8.25978,12.63573-18.99306,12.63573-32.20032,0-8.00149-2.06332-15.06075-6.19596-21.17428-4.13214-6.11303-10.16274-10.76774-18.10028-13.95365,6.24492-2.73178,11.08948-6.68357,14.53868-11.85536,3.44969-5.17179,5.17179-11.07499,5.17179-17.7101,0-10.67032-3.75694-19.48366-11.27034-26.446-7.51339-6.95934-18.06631-10.44051-31.66375-10.44051-13.72384,0-24.31123,3.48117-31.76117,10.44051-7.44744,6.96234-11.16992,15.77567-11.16992,26.446,0,6.24492,1.60969,11.98725,4.83007,17.222,3.21738,5.23524,8.37419,9.35289,15.46343,12.34346-8.25978,3.51314-14.30986,8.50408-18.14674,14.97832h0ZM274.99273,245.31697c3.12246-3.12246,7.31805-4.68369,12.58726-4.68369,5.07387,0,9.15755,1.54674,12.24604,4.63523,3.08849,3.09049,4.63473,7.20864,4.63473,12.34596,0,5.46406-1.56123,9.74308-4.68369,12.83107-3.12246,3.08849-7.28408,4.63523-12.48984,4.63523-5.13732,0-9.25497-1.52726-12.34346-4.58627-3.08799-3.05901-4.63473-7.31805-4.63473-12.78261,0-5.13732,1.56123-9.27446,4.68369-12.39492h0ZM272.69959,303.96328c3.28333-4.62024,8.27927-6.92787,14.97832-6.92787,5.79079,0,10.5724,2.03435,14.34334,6.09854,3.77143,4.0642,5.6599,9.45032,5.6599,16.14887,0,7.67476-1.85399,13.54848-5.56198,17.61268-3.70798,4.0642-8.39168,6.09854-14.05107,6.09854-5.79129,0-10.62136-2.11228-14.49022-6.34234s-5.80578-10.11378-5.80578-17.66164c0-5.40061,1.64416-10.40654,4.92749-15.02678h0Z" fill="#1d1d1b" stroke-width="0"/></svg>