<?xml version="1.0" encoding="UTF-8"?><svg id="Ebene_1" xmlns="http://www.w3.org/2000/svg" viewBox="0 0 490 489.99862"><path d="M447.51844,485.6467H42.48644c-37.49881,0-38.08183-36.60109-38.12818-38.1282V42.4889C4.35827,4.9879,40.95938,4.40487,42.48644,4.35841h405.03199c37.49901,0,38.08403,36.60124,38.128,38.13049v405.0296c0,37.49882-36.60074,38.08429-38.128,38.1282" fill="#bcbcbc" opacity=".7" stroke-width="0"/><path d="M5.48773,469.17084C.13806,458.76426.03317,448.68945.00145,447.51365H.00145V42.48641C-.14247,22.23687,10.41777,10.70575,20.84144,5.48799h0C31.23584.13834,41.31794.03343,42.4767.00145h0l.00974,2.18572V.00145h405.027c20.25203-.14388,31.78066,10.41653,36.99642,20.84005h0c5.35215,10.39455,5.45456,20.47635,5.48854,21.6449h0v405.02725c.15138,20.25208-10.41603,31.78081-20.84205,36.99627h0c-10.39205,5.3521-20.47685,5.45455-21.6429,5.4887H42.04735c-19.97885,0-31.37828-10.48954-36.55962-20.82778h0ZM24.85918,13.24768c-8.2428,4.45188-15.96112,11.98475-16.11724,29.23872h0v405.00771c-.01953.39033.17561,9.36738,4.50559,17.6468h0c4.45193,8.24525,11.9849,15.97331,29.23892,16.1148h404.99802c.40967.01953,9.37688-.17561,17.65614-4.50314h0c8.2453-4.45443,15.97351-11.97271,16.1149-29.23892h0V42.51838c.01948-.40517-.17536-9.38237-4.50284-17.65914h0c-4.45438-8.2428-11.97276-15.96102-29.23922-16.11739H42.44253c-.96357,0-9.60399.33173-17.58335,4.50584h0ZM42.48644,4.3729v-2.18572l-.00974-2.18572.00974,4.37145h0Z" fill="#bcbcbc" stroke-width="0"/><path d="M245.00261,419.52881c96.23525,0,174.52109-78.29084,174.52109-174.52408s-78.28584-174.52358-174.52109-174.52358S70.48103,148.77198,70.48103,245.00473s78.29084,174.52408,174.52159,174.52408h0Z" fill="#bcbcbc" stroke-width="0"/><path d="M245.00261,419.52881c96.23525,0,174.52109-78.29084,174.52109-174.52408s-78.28584-174.52358-174.52109-174.52358S70.48103,148.77198,70.48103,245.00473s78.29084,174.52408,174.52159,174.52408h0Z" fill="none" stroke="#1d1d1b"/><path d="M202.04155,152.6778v-16.71741h16.42265v-6.65459h-16.42265v-9.31143h19.02503v-6.65459h-26.96757v39.33801h7.94254ZM230.37801,149.92854c2.66633,2.29763,6.48673,3.4467,11.45818,3.4467,3.41772,0,6.2714-.47811,8.55754-1.43433,2.29264-.95622,4.0637-2.42003,5.31768-4.38843,1.24898-1.9664,1.87847-4.07868,1.87847-6.33285,0-2.48548-.52707-4.57378-1.57122-6.26441-1.04865-1.69063-2.49797-3.02254-4.34697-3.99825-1.85399-.97571-4.71017-1.91994-8.57453-2.8322-3.86386-.91226-6.29588-1.78805-7.29857-2.62936-.78536-.66146-1.18104-1.45632-1.18104-2.38856,0-1.01967.42216-1.83201,1.26147-2.44151,1.30744-.94673,3.11247-1.42234,5.42059-1.42234,2.23668,0,3.91282.44414,5.03241,1.32942,1.11709.88578,1.8465,2.3396,2.18572,4.35946l7.94504-.34922c-.1269-3.61256-1.43933-6.50071-3.9323-8.66695-2.49797-2.16374-6.21345-3.24686-11.15043-3.24686-3.02254,0-5.60344.45613-7.74071,1.36839-2.13676.91226-3.77593,2.24168-4.91051,3.98626-1.13658,1.74408-1.70511,3.61756-1.70511,5.62043,0,3.11247,1.20752,5.75182,3.62255,7.91556,1.7176,1.53925,4.70567,2.83719,8.96271,3.89084,3.31031.82483,5.43008,1.39537,6.35933,1.7176,1.36139.48311,2.31262,1.05115,2.85918,1.70511s.81734,1.44433.81734,2.37357c0,1.44882-.64647,2.71529-1.94442,3.79791-1.29794,1.08312-3.22488,1.62268-5.7838,1.62268-2.41504,0-4.33248-.60751-5.75482-1.82502-1.42184-1.21451-2.36608-3.11996-2.8322-5.71535l-7.72772.75139c.51958,4.40042,2.11228,7.7522,4.77612,10.05033h0ZM272.3189,152.6778v-11.88733l6.44026-6.57415,10.8162,18.46149h10.27514l-15.6173-24.01597,14.81196-15.32204h-10.67932l-16.04695,17.4683v-17.4683h-7.94254v39.33801h7.94254Z" fill="#1d1d1b" stroke-width="0"/><path d="M253.58203,252.86064h-17.43164c-.0459-2.50586-.06836-4.0332-.06836-4.58008,0-5.65039.93359-10.29883,2.80273-13.94531,1.86816-3.64551,5.60547-7.74707,11.21094-12.30469,5.60547-4.55664,8.95508-7.54199,10.04883-8.95508,1.68555-2.23242,2.5293-4.69336,2.5293-7.38281,0-3.73633-1.49316-6.93848-4.47754-9.60449-2.98535-2.66602-7.00684-3.99902-12.06543-3.99902-4.87695,0-8.95508,1.39062-12.23633,4.16992-3.28125,2.78027-5.53711,7.01855-6.76758,12.71484l-17.63672-2.1875c.50098-8.15723,3.97559-15.08398,10.4248-20.78125,6.44824-5.69629,14.91309-8.54492,25.39551-8.54492,11.02832,0,19.80078,2.88281,26.31836,8.64746,6.5166,5.76562,9.77539,12.47559,9.77539,20.13184,0,4.23828-1.19629,8.24902-3.58887,12.03125-2.39258,3.7832-7.50879,8.93262-15.34668,15.44922-4.05664,3.37305-6.57422,6.08398-7.55371,8.13477-.98047,2.05078-1.4248,5.71973-1.33301,11.00586ZM236.15039,278.70048v-19.20898h19.20898v19.20898h-19.20898Z" fill="#000" stroke-width="0"/><path d="M164.37305,364.22197v-3.26074c-.79297,1.16211-1.83594,2.07812-3.12695,2.74805-1.29297.66992-2.65625,1.00488-4.0918,1.00488-1.46289,0-2.77539-.32129-3.9375-.96387s-2.00293-1.54492-2.52246-2.70703-.7793-2.76855-.7793-4.81934v-13.78125h5.7627v10.00781c0,3.0625.10547,4.93945.31836,5.62891.21094.69141.59766,1.23828,1.1582,1.64062.56055.4043,1.27148.60547,2.13281.60547.98438,0,1.86621-.26953,2.64551-.81055.7793-.53906,1.3125-1.20898,1.59961-2.00977.28711-.79883.43066-2.75781.43066-5.875v-9.1875h5.7627v21.7793h-5.35254Z" fill="#000" stroke-width="0"/><path d="M195.50391,364.22197h-5.7627v-11.11523c0-2.35156-.12305-3.87207-.36914-4.5625s-.64648-1.22754-1.19922-1.61035c-.55469-.38281-1.2207-.57422-2-.57422-.99805,0-1.89355.27344-2.68652.82031s-1.33691,1.27148-1.62988,2.17383c-.29492.90234-.44141,2.57031-.44141,5.00391v9.86426h-5.7627v-21.7793h5.35254v3.19922c1.90039-2.46094,4.29297-3.69141,7.17773-3.69141,1.27148,0,2.43359.22949,3.48633.6875s1.84863,1.04199,2.38867,1.75293.91602,1.51758,1.12891,2.41992c.21094.90234.31738,2.19434.31738,3.87598v13.53516Z" fill="#000" stroke-width="0"/><path d="M200.81543,365.65751l6.58301.7998c.10938.76562.3623,1.29199.75879,1.5791.54688.41016,1.4082.61523,2.58398.61523,1.50391,0,2.63184-.22559,3.38379-.67676.50586-.30078.88867-.78613,1.14844-1.45605.17773-.47852.2666-1.36035.2666-2.64551v-3.17871c-1.72266,2.35156-3.89648,3.52734-6.52148,3.52734-2.92578,0-5.24316-1.2373-6.95215-3.71191-1.33984-1.95508-2.00977-4.38867-2.00977-7.30078,0-3.65039.87793-6.43945,2.63477-8.36719s3.94141-2.8916,6.55273-2.8916c2.69336,0,4.91504,1.18262,6.66504,3.54785v-3.05566h5.39355v19.54395c0,2.57031-.21191,4.49121-.63574,5.7627s-1.01855,2.26953-1.78418,2.99414-1.78809,1.29199-3.06641,1.70215-2.89453.61523-4.84961.61523c-3.69141,0-6.30957-.63281-7.85449-1.89746s-2.31738-2.86719-2.31738-4.80859c0-.19141.00684-.42383.02051-.69727ZM205.96289,352.88115c0,2.31055.44727,4.00293,1.34375,5.0752.89453,1.07422,1.99902,1.61035,3.31152,1.61035,1.4082,0,2.59766-.5498,3.56836-1.65137.9707-1.09961,1.45605-2.73047,1.45605-4.89062,0-2.25586-.46484-3.93066-1.39453-5.02441s-2.10547-1.64062-3.52734-1.64062c-1.38086,0-2.51953.53711-3.41406,1.61035-.89648,1.07324-1.34375,2.70996-1.34375,4.91113Z" fill="#000" stroke-width="0"/><path d="M239.61621,357.29033l5.74219.96387c-.73828,2.10547-1.9043,3.70898-3.49609,4.80957-1.59375,1.10059-3.58594,1.65039-5.97852,1.65039-3.78711,0-6.58984-1.2373-8.4082-3.71191-1.43555-1.98242-2.15332-4.48438-2.15332-7.50586,0-3.60938.94336-6.43555,2.83008-8.47949s4.27246-3.06641,7.15723-3.06641c3.24023,0,5.79688,1.07031,7.66992,3.20898,1.87305,2.14062,2.76855,5.41797,2.68652,9.83398h-14.4375c.04102,1.70898.50586,3.03906,1.39453,3.98828.88867.95117,1.99609,1.42578,3.32227,1.42578.90234,0,1.66113-.24609,2.27637-.73828s1.08008-1.28516,1.39453-2.37891ZM239.94434,351.46611c-.04102-1.66797-.47168-2.93555-1.29199-3.80469-.82031-.86719-1.81836-1.30176-2.99414-1.30176-1.25781,0-2.29688.45801-3.11719,1.37402s-1.22363,2.16016-1.20996,3.73242h8.61328Z" fill="#000" stroke-width="0"/><path d="M250.19824,342.44267h5.37305v3.19922c.69727-1.09375,1.64062-1.98242,2.83008-2.66602s2.50879-1.02539,3.95801-1.02539c2.5293,0,4.67578.99121,6.43945,2.97363s2.64551,4.74414,2.64551,8.28516c0,3.63672-.88867,6.46387-2.66602,8.47949-1.77734,2.01758-3.93066,3.02539-6.45996,3.02539-1.20312,0-2.29395-.23926-3.27148-.71777s-2.00586-1.29883-3.08594-2.46094v10.97168h-5.7627v-30.06445ZM255.89941,352.96318c0,2.44727.48535,4.25488,1.45605,5.4248.9707,1.16797,2.15332,1.75293,3.54785,1.75293,1.33984,0,2.4541-.53613,3.34277-1.61035.88867-1.07227,1.33301-2.83301,1.33301-5.28027,0-2.2832-.45801-3.97852-1.37402-5.08594s-2.05078-1.66113-3.4043-1.66113c-1.4082,0-2.57715.54297-3.50684,1.63086-.92969,1.08594-1.39453,2.69629-1.39453,4.8291Z" fill="#000" stroke-width="0"/><path d="M281.53418,364.22197h-5.7627v-21.7793h5.35254v3.09668c.91602-1.46289,1.73926-2.42676,2.4707-2.8916s1.5625-.69727,2.49219-.69727c1.3125,0,2.57715.3623,3.79395,1.08691l-1.78418,5.02441c-.9707-.62891-1.87305-.94336-2.70703-.94336-.80664,0-1.49023.22266-2.05078.66602-.56055.44531-1.00195,1.24805-1.32227,2.41016-.32227,1.16211-.48242,3.5957-.48242,7.30078v6.72656Z" fill="#000" stroke-width="0"/><path d="M306.69727,364.22197v-3.26074c-.79297,1.16211-1.83594,2.07812-3.12695,2.74805-1.29297.66992-2.65625,1.00488-4.0918,1.00488-1.46289,0-2.77539-.32129-3.9375-.96387s-2.00293-1.54492-2.52246-2.70703-.7793-2.76855-.7793-4.81934v-13.78125h5.7627v10.00781c0,3.0625.10547,4.93945.31836,5.62891.21094.69141.59766,1.23828,1.1582,1.64062.56055.4043,1.27148.60547,2.13281.60547.98438,0,1.86621-.26953,2.64551-.81055.7793-.53906,1.3125-1.20898,1.59961-2.00977.28711-.79883.43066-2.75781.43066-5.875v-9.1875h5.7627v21.7793h-5.35254ZM295.25391,338.5872v-4.94238h4.94238v4.94238h-4.94238ZM304.07227,338.5872v-4.94238h4.96289v4.94238h-4.96289Z" fill="#000" stroke-width="0"/><path d="M315.49512,342.44267h3.19922v-1.64062c0-1.83203.19531-3.19922.58398-4.10156.39062-.90234,1.10742-1.63672,2.1543-2.20508,1.04492-.56641,2.36816-.85059,3.96777-.85059,1.64062,0,3.24707.24609,4.81934.73828l-.7793,4.01953c-.91602-.21875-1.79785-.32812-2.64551-.32812-.83398,0-1.43262.19434-1.79395.58496-.36328.38867-.54395,1.1377-.54395,2.24512v1.53809h4.30664v4.53223h-4.30664v17.24707h-5.7627v-17.24707h-3.19922v-4.53223Z" fill="#000" stroke-width="0"/><path d="M341.99121,342.44267v4.59375h-3.9375v8.77734c0,1.77734.03711,2.81348.11328,3.10742.07422.29395.24609.53613.51172.72754.26758.19141.5918.28711.97461.28711.5332,0,1.30566-.18457,2.31738-.55371l.49219,4.4707c-1.33984.57422-2.85742.86133-4.55273.86133-1.03906,0-1.97559-.17383-2.80957-.52344-.83398-.34766-1.44531-.79883-1.83594-1.35352-.38867-.55273-.65918-1.30176-.80957-2.24512-.12305-.66992-.18457-2.02344-.18457-4.06055v-9.49512h-2.64551v-4.59375h2.64551v-4.32715l5.7832-3.36328v7.69043h3.9375Z" fill="#000" stroke-width="0"/></svg>