<?xml version="1.0" encoding="UTF-8"?><svg id="a" xmlns="http://www.w3.org/2000/svg" viewBox="0 0 378 660"><path d="M214.988037,0h-83.70575c14.723999,4.730469,29.626648,8.845154,44.622681,10.218018,14.170776,1.296387,26.64447-4.130554,39.083069-10.218018Z" fill="#f8dc1e"/><path d="M328.122986,17.55603c15.269775-5.000366,30.528564-11.703491,45.987793-17.55603h-51.500244c-11.212585,3.763733-23.330383,6.761353-32.282837,0h-11.728882c1.927673,4.095398,3.5979,8.379211,5.60614,12.006042,9.901001,17.863953,28.164001,10.707947,43.91803,5.549988Z" fill="#f8dc1e"/><path d="M92.318054,35.455017c22.098999,8.71698,44.494019,21.679016,68.140991,25.21698,19.333008,2.893005,36.742004-9.505981,52.799988-18.980957,13.674011-8.069031,32.904968-22.736023,49.737-19.156006,13.506958,2.872986,16.399963,20.73999,21.799988,31.472961,3.169983,6.294983,7.156982,12.143982,14.34198,13.507019,9.504028,1.802002,21.809998-2.315979,31.039001-4.471985,15.938721-3.723267,31.803833-8.559937,47.822998-12.393799V23.566711c-16.049072,5.036804-31.895386,11.117859-47.822937,15.776245-16.112,4.712036-35.338989,12.640015-45.338989-5.753967-5.551025-10.212036-8.453003-26.89502-21.473022-29.612-15.838013-3.300049-32.799011,8.08197-46.119995,15.299988-15.846985,8.584961-31.201965,17.653992-49.646973,15.099976-26.460999-3.664001-51.95105-16.002991-77.216003-24.343994C69.324036,3.079956,51.252075-1.596008,30.274048,7.339966,19.995422,11.718506,10.230347,17.379395,0,21.609436v22.639404c11.976257-3.850281,23.344788-9.71936,35.348083-13.945862,20.342957-7.166992,37.338013-2.59198,56.969971,5.152039Z" fill="#f8dc1e"/><path d="M91.753967,88.193909c15.572021,9.697021,31.156982,25.02002,49.36499,29.049011,8.960999,1.983032,16.932007-1.198975,24.976013-5.22998,13.007019-6.517944,25.10498-15.003967,37.22699-23.082947,11.310974-7.538025,22.583984-15.36499,34.593994-21.68103,7.260986-3.81897,16.986023-9.291016,25.453003-6.768982,14.256042,4.247009,17.294006,26.388977,22.700012,38.289001,3.093018,6.80896,6.994995,13.596985,14.5,15.532959,8.133972,2.098999,18.737,.338989,27-.036987,16.811401-.765381,33.612915-2.063049,50.43103-2.678101v-30.880066c-16.767334,2.397339-33.437439,5.80719-50.166077,8.251099-8.595947,1.255005-19.084961,4.062012-27.724976,2.268005-6.972961-1.445984-10.975952-7.266968-14.099976-13.399963-5.959961-11.702026-8.671997-33.281006-23.72998-36.358032-7.863037-1.606995-16.76001,2.658997-23.611023,6.059021-10.491028,5.200012-20.379028,11.669983-30.291016,17.945007-16.040955,10.154968-36.305969,26.77301-56.260986,23.740967-21.119995-3.208984-40.594971-17.628967-59.534973-26.954956-17.601013-8.66803-32.702026-12.334045-51.782043-7.100037-13.801819,3.78656-26.947815,9.527222-40.79895,12.544006v22.430237c14.553894-1.747986,28.503052-6.348267,42.907959-9.520203,18.552002-4.085022,32.390015-2.665039,48.846008,7.58197Z" fill="#f8dc1e"/><path d="M53.441101,129.393921c15.822998-1.208984,27.908997-1.77301,39.299988,11,9.365967,10.502991,17.805969,29.096008,32.365967,32.643005,8.871033,2.162048,18.984009-4.453003,26.362-8.690979,14.819031-8.513,28.707031-18.870972,42.619019-28.85498,12.945984-9.291016,25.848999-18.788025,39.460999-27.017029,8.075989-4.881958,20.059998-13.469971,29.875977-10.263977,14.846008,4.849976,18.259033,31.577026,23.466003,44.143005,2.898987,6.996033,6.585999,14.890991,13.870972,17.88501,7.255981,2.983032,17.377991,2.492004,25.127991,4.015015,17.390381,3.416504,34.562622,8.040039,52.109985,10.460693v-30.79187c-16.718872-1.156494-33.423767-2.521362-50.136902-3.764893-8.078003-.60199-18.497986,.385986-26.278015-1.984985-7.879028-2.400024-11.963013-9.776978-15.085999-17.106995-5.362-12.583984-8.625977-37.539001-23.867981-41.744995-9.08197-2.506042-21.055969,5.381958-28.455994,9.70697-12.356018,7.22699-24.092041,15.599976-35.856018,23.799988-12.659973,8.822998-25.302979,17.955994-38.768982,25.432983-8.050049,4.474976-17.618042,10.174011-27.06604,7.799988-15.338013-3.853943-26.898987-19.405945-38.518982-29.422974-6.13501-5.289001-13.14801-10.794006-21.234985-12.205994-7.801025-1.362976-16.460999,.111023-24.220032,1.210999-16.242065,2.306335-32.128662,6.124634-48.510071,6.746887v20.871582c17.934875,.253357,35.589905-2.500732,53.441101-3.866455Z" fill="#f8dc1e"/><path d="M301.647034,182.292297c-7.752991-2.869995-11.553955-11.334961-14.487976-18.734985-5.27301-13.309998-8.633972-42.002014-24.625-46.445007-9.486023-2.638977-21.299011,5.966003-28.986023,10.700012-14.734009,9.074951-28.653015,19.564026-42.645996,29.815979s-27.953979,20.645996-42.644958,29.815979c-7.93103,4.949951-20.212036,13.628967-30.200012,10.578979-12.539001-3.831055-17.380005-21.824036-23.694031-31.93103-3.929016-6.290039-8.498962-11.890015-15.893005-13.429016-7.21698-1.502014-15.846008-.302002-23.192993-.077026-17.756958,.544983-35.460999,1.802979-53.235962,1.383972,.648987,6.438965,1.166992,12.869995,1.359985,19.343994,17.744995,.143005,35.495972-.062988,53.244995-.119995,15.906006-.052002,29.990967-2.963013,38.172974,13.786011,5.069031,10.375977,7.453003,28.636963,19.987,32.554993,10.16803,3.177979,22.466003-5.584045,30.484985-10.655029,15.203003-9.614014,29.650024-20.513977,44.112-31.236023s28.864014-21.723022,44.112-31.236023c7.713013-4.812012,19.422974-13.443054,29.013-10.79303,16.189026,4.473999,19.541992,34.132996,24.789001,47.619995,2.89502,7.444946,6.671997,16.299988,14.538025,19.099976,7.152954,2.536987,15.218994,2.099976,22.599976,4.799988,18.048889,6.605957,34.051636,17.87384,53.544983,19.486084v-23.175476c-18.639587-2.626343-35.673218-11.008545-53.641968-16.420349-7.310974-2.200989-15.705017-2.138977-22.710999-4.732971Z" fill="#f8dc1e"/><path d="M55.743958,211.215088c7.437988-.284973,16.163025-1.472961,23.575989-.22699,7.807983,1.315979,12.161011,6.281006,16.028992,13.099976,6.267029,11.046997,9.880005,30.786987,23.544006,34.630981,9.272034,2.607971,19.177002-3.955994,26.738037-8.739014,15.070007-9.53302,28.805969-21.307007,42.641968-32.614014,12.832031-10.487,25.580017-21.296021,39.374023-30.424011,7.382996-4.883972,18.963989-13.594971,28.583008-11.099976,16.359985,4.242981,20.694946,33.223999,26.724976,46.523987,3.230042,7.125,7.375,14.820984,15.054016,17.315002,7.280029,2.36499,15.665039,2.482971,23.171021,4.35199,18.927124,4.711975,37.49939,11.624207,56.820007,14.422119v-13.785278c-19.314636-2.220337-36.355469-12.332764-54.624023-18.493774-7.255005-2.445007-15.416016-2.309998-22.400024-4.885986-7.776978-2.868958-11.620972-11.576965-14.593994-18.958984-5.421021-13.460022-9.039978-42.414978-25.080994-47.059998-9.667969-2.799011-21.442017,5.754028-29.205994,10.664001-14.926025,9.440002-28.908997,20.47998-42.976013,31.23999s-28.098999,21.690979-42.97699,31.23999c-8.090027,5.192017-20.434021,13.770996-30.713013,10.645996-12.664001-3.849976-15.22998-22.494995-20.388-32.922974-3.34198-6.75-7.468994-12.226013-15-13.643005-7.286011-1.370972-15.849976-.211975-23.263-.132996-18.007996,.191956-36.006958,.725952-54.016968,.461975-.692566,6.727783-1.633911,13.382019-2.760986,20.046143v.18512c18.609863,.347839,37.153992-1.127625,55.743958-1.840271Z" fill="#f8dc1e"/><path d="M79.651917,248.650024c7.992004,1.286011,13.422058,6.786011,18.157043,13.252014,8.662964,11.831055,15.654968,32.662048,30.427002,37.814026,8.687012,3.031006,16.950989-2.079041,23.836975-7.200012,12.197021-9.070007,22.640991-20.725037,33.174988-31.705017,9.852051-10.268005,19.606018-21.005981,30.769043-29.783997,6.81604-5.359009,15.581055-12.065979,24.663025-9.380005,14.905029,4.408997,20.480042,26.440002,27.530029,38.640015,3.90802,6.77301,8.615051,13.711975,16.400024,15.747986,8.869995,2.320984,19.992981,1.19696,29.070007,1.578979,21.440491,.902344,42.878052,1.881775,64.319946,2.742676v-10.312073c-19.848145-2.169189-39.556152-5.764709-59.322998-8.547729-8.613037-1.213013-18.876038-.594971-27.129028-3.343994-7.968018-2.652954-12.567993-11.062988-16.067993-18.320984-6.040039-12.518982-11.067017-36.557983-26.049011-41.06897-8.817017-2.653992-18.425049,4.062988-25.400024,8.906006-13.253967,9.203003-25.144958,20.515991-37.127991,31.390015s-23.864014,22.184998-37.127991,31.390015c-7.44104,5.165039-17.483032,11.953003-26.882996,8.843018-13.684998-4.526978-19.090027-24.516968-26.190002-35.641968-3.757019-5.888977-8.204041-11.489014-15.091003-13.276001-7.741028-2.01001-17.800049-.175964-25.617004,.390015-18.66803,1.351379-37.272278,3.834167-55.993958,4.050171v21.500854c17.706604-1.020691,35.273071-4.085327,52.894958-6.07605,8.338989-.940979,18.388-2.935974,26.756958-1.588989Z" fill="#f8dc1e"/><path d="M81.180969,286.618713c9.013,1.690063,16.054016,9.222046,21.879028,16.036011,10.85199,12.694092,22.539978,36.284058,40.164978,39.769043,17.831055,3.526001,30.742004-24.677979,38.381042-36.991943,7.865967-12.682007,20.242004-39.912964,38.222961-37.199951,15.069031,2.273071,22.528015,20.802002,31.200012,31.561035,4.383972,5.434082,9.508972,10.694092,16.419983,12.300049,11.578003,2.692017,27.243042-1.191895,38.731018-2.350952,23.925354-2.412659,47.849426-5.502075,71.820007-7.73584v-11.012817c-23.340515,.772339-46.67157,2.106628-70.002014,3.016357-9.941956,.386963-21.466003,2.485962-31.289978,.505981-7.390015-1.48999-12.454041-7.343994-16.700012-13.359985-8.197998-11.612915-14.932007-33.42395-30.723022-36.099976-8.453979-1.433044-15.786987,4.546997-21.642944,10.073975-8.999023,8.493042-16.56604,18.572998-24.252014,28.307983-10.007019,12.672974-28.354004,43.262085-47.56604,37.879028-16.328979-4.576904-25.5-26.317993-35.429016-38.78894-5.026978-6.312988-11.040955-12.776978-19.05896-14.552002-8.228027-1.822998-18.478027,.595093-26.63501,1.738037-18.233704,2.55658-36.380371,6.542725-54.700989,8.526123v20.942993c17.215454-2.634338,34.270264-6.840393,51.380981-9.823242,9.220032-1.606934,20.487976-4.486938,29.799988-2.740967Z" fill="#f8dc1e"/><path d="M81.499023,324.299927c9.359009,1.815063,17.085999,9.375,23.671997,16.062012,13.643982,13.854004,27.388977,37.279053,46.822021,42.770996,17.948975,5.072021,22.902954-21.810059,26.748962-34.578003,3.799988-12.605957,8.070007-36.9729,24.862976-35.39502,15.156006,1.424927,24.092041,16.688965,34.55603,26.151978,16.72998,15.130005,37.293945,7.933105,57.336975,4.446045,27.443787-4.774963,54.904907-11.033997,82.502014-15.73584v-13.597778c-27.066833,3.764771-54.033325,8.807434-81.013977,12.666504-11.109985,1.589111-23.458008,4.851074-34.729004,3.71106-8.01001-.812988-14.166992-5.973999-19.51001-11.800049-9.062988-9.881958-17.233948-25.460938-31.562988-27.48999-17.541016-2.486938-25.440979,23.223999-31.208008,36.113037-5.61499,12.547974-13.984985,39.666016-31.471985,35.734985-18.114014-4.071899-31.060974-27.150879-42.843018-40.137939-6.580994-7.25293-14.671021-15.86792-24.630981-17.667969-9.484009-1.712036-20.981995,1.642944-30.174988,3.442993-16.925476,3.31604-33.8125,7.927979-50.855042,11.163147v19.93512c17.262573-3.718933,34.363403-8.77887,51.499023-12.380249,9.400024-1.975098,20.420044-5.272095,30-3.415039Z" fill="#f8dc1e"/><path d="M82.138,361.572998c8.669983,2.013062,15.999023,9.130005,22.27002,15.239014,9.134949,8.899902,17.336975,18.759888,26.32196,27.814941,6.622009,6.67395,14.970032,15.302002,24.394043,17.480957,18.094971,4.187012,20.48999-21.856934,22.867004-34.512939,2.47998-13.213989,4.526978-37.60498,22.599976-34.730957,13.91803,2.213013,23.433044,14.901001,33.846008,23.427002,18.099976,14.819946,38.883972,8.256958,59.929993,4.078979,23.632996-4.690918,47.119019-10.145996,70.687012-15.162964,4.302307-.915283,8.618347-1.863403,12.945984-2.792725v-18.5047c-28.095825,5.292419-56.043457,12.656799-83.828979,17.992493-20.898987,4.014038-42.044983,11.186035-59.919983-3.906006-10.275024-8.676025-19.519043-21.635986-33.519043-23.718018-18.024963-2.68103-20.161011,21.463989-22.708008,34.710938-2.427002,12.61499-4.958008,38.713989-23,34.300049-9.377991-2.294067-17.670959-10.715088-24.322998-17.378052-8.84198-8.856934-16.916992-18.514038-25.906006-27.213989-6.270996-6.072021-13.612-13.114014-22.231995-15.185059-10.106995-2.427979-22.133972,1.369019-32.079956,3.578979-16.767395,3.725586-33.546143,8.964661-50.483032,12.889648v18.678955c16.812805-4.068542,33.445862-9.664917,50.04303-13.492554,9.941956-2.293945,21.950012-5.949951,32.094971-3.593994Z" fill="#f8dc1e"/><path d="M73.620972,391.158997c10.975037,2.039062,19.765991,12.706055,26.775024,20.764038,7.968994,9.166992,15.278015,18.921997,23.268982,28.067017,6.460999,7.393921,15.107971,17.861938,25.122986,20.084961,17.848999,3.961914,25.44104-24.925049,30.473999-37.581055,5.29303-13.310913,12.235046-40.230957,30.243042-37.730957,14.359009,1.994019,24.73999,15.242065,35.490967,23.983032,6.175964,5.022095,13.026978,9.585083,21.026978,10.44104,11.364014,1.214966,23.463989-2.393066,34.437988-4.925049,20.920044-4.826904,41.584045-10.778931,62.369019-16.178955,5.03418-1.307007,10.09082-2.650635,15.170044-3.92395v-14.90509c-4.660278,1.062012-9.304871,2.162231-13.933105,3.229065-22.386963,5.164917-44.674988,10.825928-67.151978,15.564941-20.440002,4.30896-39.95697,10.134033-57.67395-3.843018-11.186035-8.823975-21.393005-22.896973-36.369995-24.531982-17.017029-1.856934-20.872986,23.305054-24.416992,35.978027-3.612,12.914917-8.036011,40.161011-26.236023,35.480957-9.033997-2.322998-16.477966-10.210083-22.841003-16.863037-9.170959-9.583008-17.389954-20.082031-26.570984-29.650024-6.705994-6.989014-14.613953-15.266968-24.333984-17.016968-9.627014-1.734009-20.403015,1.380005-29.708984,3.780029-16.200073,4.178345-32.349182,10.498718-48.763,14.927612v16.089783c15.086731-4.7547,29.753418-11.752014,44.620972-16.464417,8.669006-2.746948,19.717041-6.500977,29-4.776001Z" fill="#f8dc1e"/><path d="M61.161072,415.431213c10.099976,2.161011,18.109985,13.343018,24.099976,21.099976,9.332031,12.084961,17.460022,25.105957,26.617004,37.328003,6.091003,8.130981,14.330017,20.616943,24.609985,23.770996,19.458008,5.964966,36.657043-29.523071,45.005005-42.300049,9.268982-14.187012,24.401001-46.229004,44.843994-42.770996,15.402039,2.60498,27.05603,16.909912,38.934021,26.126953,6.495972,5.043945,13.695007,9.799927,21.968994,10.699951,10.161011,1.105957,21.054993-2.962036,30.617981-6.088013,19.718567-6.444763,39.708008-16.261047,60.141968-22.405273v-13.245544c-21.933899,5.712402-43.590271,14.459229-64.855957,20.441833-11.713989,3.294922-25.965027,8.496948-38.388,6.428955-7.099976-1.185059-13.281982-5.136963-18.969971-9.5-11.755981-9.017944-22.513-22.99292-37.64801-25.792969-19.440979-3.596069-30.468018,26.141968-37.809021,40.041992-6.875,13.018066-19.116028,45.349976-38.067017,39.650024-9.766968-2.936035-17.708984-13.651978-23.867004-21.218018-8.880981-10.912964-16.817993-22.615967-25.763-33.475952-6.221008-7.553955-13.822998-17.309937-23.453003-20.026978-9.232971-2.60498-20.717957,1.960083-29.112,5.467041-13.422791,5.610352-26.359802,13.654297-40.067017,18.797424v15.801758c13.400879-5.781616,25.036987-16.175476,38.034058-23.055115,6.718994-3.557007,15.36499-7.438965,23.127014-5.776001Z" fill="#f8dc1e"/><path d="M29.606079,447.376953c4.790039-4.942993,11.558044-9.822021,18.743042-8.067993,11.188965,2.726929,19.493958,17.469971,25.47699,26.526978,9.063965,13.721069,17.015991,28.192017,25.985962,41.977051,6.098022,9.370972,13.518005,22.562012,24.018005,27.244019,9.665039,4.312012,19.475037-4.503052,26.400024-10.671021,12.260986-10.921021,22.835999-23.872925,33.550964-36.343994,10.715027-12.471069,21.300049-25.426025,33.551025-36.343018,7.585999-6.760986,15.872009-13.422974,26.338989-11.572021,16.511963,2.921021,29.607971,18.753052,42.588989,28.442993,15.731995,11.743042,28.377991,12.974976,45.841003,4.51001,15.145935-7.34082,29.89563-19.04303,45.898926-25.573547v-13.253296c-18.662781,6.568481-36.539307,17.710327-54.479858,24.655579-8.493958,3.288086-17.852966,6.830078-27.052979,5.160034-7.953003-1.44397-15.135986-6.5-21.453003-11.437988-12.041016-9.411987-24.450012-24.145996-40.187012-26.446045-9.661011-1.408936-17.309021,5.052002-23.952026,11.572021-10.46698,10.270996-19.237976,22.363037-28.171997,34.035034-8.919983,11.655029-17.721985,23.774048-28.171997,34.035034-6.077026,5.967041-14.902039,14.197021-24.027039,11.041016-9.929993-3.432983-17.510986-15.299072-23.329956-23.515015-9.57605-13.517944-17.888-27.942993-27.462036-41.460938-5.969971-8.429932-14.294983-21.667969-24.924011-24.387939-7.536987-1.927979-15.032959,2.134033-21.050964,6.52002-11.686768,8.517029-20.744934,21.391907-33.737122,27.079163v16.936157c13.960815-4.569519,19.48822-20.220459,29.606079-30.662292Z" fill="#f8dc1e"/><path d="M25.279114,475.955933c13.14502-22.168091,32.169006,7.437012,39.539978,19.277954,9.598022,15.418945,17.664978,31.80896,26.947021,47.428955,6.021973,10.13501,13.607971,25.567017,24.834961,30.442993,9.401978,4.085083,19.903992-5.265991,26.835022-10.751953,14.98999-11.867065,28.346008-26.138062,41.789978-39.791016,12.567993-12.762939,25.071045-25.708008,38.684021-37.291992,8.352966-7.108032,18.438965-15.82605,29.909973-14.046997,16.888977,2.619019,31.047974,19.130981,44.289001,28.967041,14.544983,10.807007,28.880981,16.521973,44.711975,5.207031,12.042786-8.607666,21.818604-22.067566,35.178955-28.191956v-15.369141c-13.99353,6.317566-25.938599,18.659668-38.760864,26.584167-7.034973,4.346069-14.903015,8.222046-23.291992,6.832031-8.78595-1.454956-16.685974-6.989014-23.685974-12.333984-12.862976-9.829102-26.328979-25.252075-42.919983-27.81604-10.088013-1.558105-18.731018,5.390991-26.200012,11.590942-13.893005,11.529053-26.099976,25.259155-38.465027,38.487061s-24.559998,26.955933-38.465027,38.486938c-7.359985,6.10498-18.299988,15.64209-28.105957,9.958008-9.80603-5.684082-16.663025-17.989014-22.570007-27.44104-9.241028-14.790894-17.342041-30.299927-26.579041-45.090942-8.388-13.428955-26.286987-41.664062-41.734985-20.229004-7.894287,10.952515-10.554626,34.139282-27.22113,34.557007v.147095c1.164429,5.565918,2.080017,11.096069,2.762085,16.746826,17.980042-2.660034,14.934998-23.572998,22.517029-36.359985Z" fill="#f8dc1e"/><path d="M344.149963,524.041626c-15.547974,11.722046-30.481995,5.394043-44.794983-5.219971-13.301025-9.863037-27.710022-26.666992-44.687012-29.218018-11.369019-1.707886-21.406982,7.128052-29.700012,14.112061-13.885986,11.695068-26.721985,24.697998-39.622009,37.525024-13.799011,13.718994-27.5,28.035034-42.765991,40.035034-6.897034,5.423096-17.312012,14.821045-26.660034,10.758057-11.255981-4.894043-18.838013-20.445068-24.838013-30.619019-9.276978-15.718018-17.326965-32.208008-26.927002-47.724976-6.987-11.297974-27.037964-42.262939-39.563965-19.490967-7.161987,13.019043-2.671021,34.545044-21.228027,36.862061-.396973,7.061035-1.156982,14.019043-2.156982,21.019043,16.881958,.369019,18.096985-25.824951,24.804993-36.772949,13.859009-22.619019,33.390015,7.845947,41.130981,20.057983,9.148987,14.427002,17.202026,29.557007,26.348999,43.97998,5.989014,9.451904,12.808044,21.305908,22.489014,27.199951,9.851013,5.998901,20.929016-3.853027,28.488037-9.894043,14.465027-11.559937,27.408997-25.17395,40.489014-38.319946s26.03302-26.764038,40.489014-38.321045c7.489014-5.983032,16.437988-13.294067,26.437988-11.883057,17.099976,2.411011,31.588013,19.106079,44.799988,29.175049,15.256042,11.630005,29.809998,17.686035,46.710022,5.800049,11.695068-8.226807,21.759827-20.920776,34.606018-27.302612v-20.410217c-13.251343,5.947327-21.967834,19.693054-33.850037,28.652527Z" fill="#f8dc1e"/><path d="M31.176086,564.233154c5.901001-5.981934,13.227966-11.24292,21.758972-8.328979,9.792053,3.344971,17.876038,13.963989,24.200012,21.807007,8.319031,10.31897,15.851013,21.291016,24.18103,31.599976,6.250977,7.736938,13.445984,17.087036,22.710999,21.041992,9.112,3.890015,17.664978-2.597046,24.740967-8.171021,12.483032-9.835083,23.317017-21.957031,34.267029-33.508057,10.231018-10.792969,20.35199-21.984009,31.791992-31.437012,7.867981-6.5,16.53302-13.345093,27.119995-11.180054,17.973999,3.675049,33.14502,21.750977,47.252991,32.583008,7.161987,5.5,15.224976,11.537964,24.224976,13.099976,8.578979,1.489014,17.107971-2.250977,24.651978-6.05603,13.28595-6.700439,26.164734-17.007263,39.922974-24.154663v-23.017639c-13.177734,6.989258-24.768311,18.615234-37.282898,25.978577-17.119995,10.06897-30.111023,6.282959-45.619995-5.300049-14.055969-10.499023-29.266968-28.849976-47.166992-31.879028-10.467041-1.77002-19.369019,5.317993-27.200012,11.678955-13.099976,10.639038-24.78595,23.151978-36.599976,35.270996s-23.491028,24.629028-36.600037,35.270996c-7.347961,5.965088-17.602966,14.989014-27.367004,10.45105-10.109985-4.697998-17.497986-16.600952-23.732971-25.572998-8.756042-12.599976-16.588013-25.862061-25.429016-38.400024-6.167053-8.744995-14.422058-22.120972-25.222046-25.090942-7.484985-2.057007-13.501953,3.215942-17.848999,8.892944-7.93103,10.361877-13.441895,33.233398-27.930054,36.210327v22.816101c13.141663-7.038452,20.86438-24.153381,31.176086-34.605408Z" fill="#f8dc1e"/><path d="M63.919983,606.783081c9.323975,.527954,17.971008,6.646973,25.240967,12.146973,13.723022,10.383057,27.776001,26.956055,45.183044,30.343018,19.325989,3.760986,35.106995-20.070923,46.085999-32.870972,10.95697-12.776978,26.980957-37.176025,46.256958-32.5,19.411011,4.71106,35.564026,24.209961,50.900024,36.27002,7.937988,6.241943,17.440002,13.771973,27.669006,14.953979,9.425049,1.088989,19.513062-3.069092,28.207031-6.394043,14.687073-5.61676,29.446045-13.721008,44.536987-20.396118v-22.915161c-13.531921,6.560181-26.607422,14.92804-39.593079,20.826172-9.399963,4.27002-20.406982,9.245972-30.914978,7.057007-8.901001-1.85498-16.947021-8.130981-24.067993-13.666992-14.734985-11.456909-31.580017-32.026978-50.799988-34.793945-8.590027-1.237061-15.797974,3.589966-22.325012,8.916992-10.459961,8.53894-19.464966,19.020874-28.559998,29.03894-9.094971,10.018066-18.092957,20.5-28.559998,29.040039-6.380981,5.206055-13.838013,10.437988-22.315979,8.738037-9.627014-1.930054-18.337036-11.067017-24.988037-17.817993-7.765991-7.880005-14.945007-16.361938-22.755005-24.199951-6.783997-6.80896-15.112976-15.197998-24.763-17.037964-8.953003-1.707031-17.08197,3.555054-23.833008,9.077026-11.40686,9.330017-21.652954,23.876831-34.523926,32.219727v23.889465c14.156189-9.150879,26.712402-22.886658,40.041992-31.572205,7.165955-4.670044,15.190002-8.845093,23.877991-8.352051Z" fill="#f8dc1e"/><path d="M212.40802,621.533936c20.180176,4.885315,37.554504,25.362854,53.434753,38.466064h95.660645c5.497925-2.000061,10.992432-4.010071,16.496582-5.986755v-22.635315c-15.038208,6.098755-29.837708,13.108154-44.412964,18.227905-10.414001,3.659912-23.532043,9.040039-34.814026,6.970947-10.328979-1.89502-19.856995-9.858887-27.856995-16.281982-15.656982-12.574097-32.69696-33.088013-52.877991-37.488037-17.161987-3.744019-29.487976,15.989014-38.873962,27.855957-10.617004,13.421875-21.592041,30.083984-40.217041,28.531982-15.617981-1.301025-29.430969-12.039062-43.078979-18.955078-19.420044-9.842041-35.228027-8.903076-54.095032,2.209961-8.376343,4.933777-16.700073,11.310791-25.219482,17.550415H60.94635c11.848572-3.641296,23.67749-4.071838,37.190674-.478149,.573486,.152527,1.146667,.316956,1.71991,.478149h66.634338c4.029175-4.098938,7.653442-9.157959,11.63678-14.685181,8.36499-11.606934,18.133972-27.688843,34.279968-23.780884Z" fill="#f8dc1e"/><path d="M205.315979,658.785889c1.547302,.265259,3.072693,.688782,4.579346,1.214111h28.984375c-1.540955-1.280701-3.08905-2.552185-4.654724-3.801025-7.947998-6.339111-17.156982-14.033203-27.325989-15.933105-13.774109-2.581421-21.656067,9.236755-28.453247,19.734131h16.002502c3.158203-1.380981,6.734436-1.921265,10.867737-1.214111Z" fill="#f8dc1e"/></svg>