<?xml version="1.0" encoding="UTF-8"?><svg id="a" xmlns="http://www.w3.org/2000/svg" viewBox="0 0 378 660"><path d="M21.894775,0H0V20.423035C7.824707,14.729126,14.940491,7.302307,21.894775,0Z" fill="#030402"/><path d="M139.51416,31.297974c13.570068,3.010986,24.494995-4.388977,34.347046-12.989014,10.859009-9.471985,20.48999-14.513977,35.031006-13.271973,21.484009,1.835999,42.13916,11.320007,62.560059,17.78302,20.631836,6.529968,39.314941,9.555969,60.314941,3.099976,15.471008-4.756287,30.564453-12.117615,46.232788-16.518188V0h-29.790283c-5.456604,1.928467-10.924194,3.795837-16.446411,5.388-21.365967,6.158997-39.718994,3.141968-60.76001-3.052002-2.520996-.742065-5.047791-1.527771-7.579834-2.335999h-95.704956c-8.906128,6.527466-18.821289,11.54303-30.221313,8.963013-6.110718-1.381836-11.682251-4.673889-16.871704-8.963013h-18.535767c4.316101,4.792847,8.602844,9.615601,13.12439,14.197998,6.692017,6.78302,14.735107,14.976013,24.300049,17.099976Z" fill="#030402"/><path d="M67.570923,7.367981c10.717041,1.714966,20.104004,11.123962,27.660034,18.523987,8.96106,8.781006,17.230103,18.286987,26.144043,27.117981,7.619995,7.549011,17.124023,17.249023,27.964966,19.43103,14.945923,3.013977,26.098999-8.03302,35.782959-18,10.60498-10.911011,20.404053-19.436035,36.165039-18.210999,19.104004,1.484009,36.599121,11.901001,54.113037,19.01001,20.333984,8.252991,37.863037,9.666992,58.533936,1.743958,14.606384-5.598816,29.052917-13.87616,44.065063-19.452637V20.213013c-15.402222,4.749207-30.227722,12.437012-45.36438,17.481873-21.408936,7.13501-40.315918,4.188049-61.315918-3.092957-19.183838-6.651001-38.509888-16.046997-58.909912-17.723022-15.080933-1.239014-24.328979,4.679016-35.209961,14.723999-10.268921,9.481018-21.761963,18.223022-36.375977,14.059998-8.873901-2.527954-16.369995-9.97699-22.840942-16.421997-9.01001-8.972961-17.140991-18.847961-26.217041-27.747986-.498535-.489075-1.008911-.988708-1.526001-1.49292H34.901367C23.573486,10.241699,12.690979,23.790649,0,32.874817v20.900818c14.441467-9.918579,26.699768-25.405273,39.762939-35.535645,7.864014-6.098022,17.530029-12.516052,27.807983-10.872009Z" fill="#030402"/><path d="M70.727051,44.004944c10.886963,2.820984,20.244995,11.927002,28.36499,19.526978,11.113037,10.39801,21.381958,21.717041,32.442993,32.173035,8.240967,7.790955,17.843994,17.406006,28.958984,20.653992,17.283936,5.049988,30.765991-12.580017,40.713989-24.388,10.632935-12.622009,22.417969-27.466003,40.317993-24.958984,15.470947,2.166992,27.467041,13.247009,40.646973,20.854004,18.729004,10.810974,34.718994,8.372986,53.899902-.606995,13.809143-6.465088,27.593201-15.516968,41.927124-22.50885v-17.022644c-14.860413,6.161438-29.152283,14.829041-43.56189,20.785522-20.234131,8.36499-37.091064,7.951965-56.923096-1.200012-15.922119-7.346985-31.667969-18.092041-49.468018-19.559998-16.387939-1.35199-26.645996,9.188965-37.187988,20.677002-9.708984,10.583984-21.343018,23.607971-37.009033,20.432007-11.205933-2.272034-21.25293-12.575012-29.168945-20.311035-9.407959-9.19397-18.178955-19.065002-27.63501-28.208008-7.889038-7.628967-17.722046-17.501953-28.822021-19.373962-10.280029-1.736023-20.029053,4.545959-28,10.552002C26.996643,41.484802,14.55896,56.703552,0,66.396973v21.066772c14.575134-9.174377,27.194153-23.670898,40.466064-33.278809,8.504028-6.156006,19.401001-12.994019,30.260986-10.179993Z" fill="#030402"/><path d="M70.909912,79.988037c13.665039,2.794006,25.994995,15.560059,35.837036,24.725037,11.307007,10.529968,22.044067,21.698975,33.369019,32.208984,9.389038,8.713013,21.060059,20.484985,33.76001,23.843994,18.519043,4.898987,33.453003-18.666016,43.18103-31.333008,9.973999-12.987,23.645996-34.432983,42.219971-31.867981,12.562012,1.734985,19.166992,13.109985,27.5,21.515991,14.059814,14.186951,30.25,9.216003,46.399902,1.034973,14.835876-7.515991,29.52771-18.420166,44.82312-27.386902v-17.647766c-14.812866,7.826111-29.03833,17.699463-43.437866,24.596619-18.049072,8.646973-33.763916,11.830017-50.822998-.234009-11.276123-7.973999-21.178955-18.986023-35.362061-20.986023-18.149048-2.555969-30.58606,14.934021-40.921021,27.653015-10.307983,12.685974-25.009033,33.406006-43.618042,26.453979-10.529053-3.937988-19.511108-12.464966-27.71106-20.099976-12.408081-11.544006-23.900024-24.104004-36.400024-35.536011-8.282959-7.575989-17.920044-16.843994-29.083008-19.411987-10.839111-2.493958-21.735107,4.372009-30.258057,10.41803C27.17218,77.309692,14.508057,91.283508,0,100.106018v21.022644c15.282166-8.782654,28.713501-23.068726,42.863892-32.20459,8.097046-5.228027,18.093018-10.972046,28.046021-8.936035Z" fill="#030402"/><path d="M71.178223,114.941101c13.881958,2.330994,27.333008,16.036987,37.333008,25.109985,13.207031,11.981995,25.708984,24.77002,38.936035,36.729004,9.817993,8.877991,20.605957,19.438965,33.230957,23.911987,20.241943,7.166992,36.9729-21.72699,46.918945-35.333008,9.774048-13.369995,25.589966-40.794006,45.295044-36.223999,11.411865,2.646973,12.770996,13.990967,17.980957,22.883972,10.036133,17.120972,30.635986,6.773987,43.736084-.5,14.9505-8.30304,28.971741-18.300354,43.390747-27.535706v-19.104614c-14.562988,8.870483-28.683167,18.626221-43.724731,26.629395-14.84082,7.893005-32.61499,15.487-45.273926,.192993-7.041992-8.508972-11.187012-19.807983-22.941895-22.299988-19.262207-4.084961-34.236084,20.559998-44.162109,33.76001-9.968994,13.247986-26.14209,39.77301-45.769043,32.872986-12.248047-4.304016-22.674072-14.476013-32.155029-23.124023-12.630005-11.518982-24.526001-23.869019-37.13501-35.411011-9.745117-8.916016-22.680054-22.008972-36.232056-24.299988-9.005981-1.521973-18.119995,3.197021-25.640015,7.767029-15.005798,9.120239-29.014832,23.864563-44.966187,32.74054v20.734924c16.06604-8.638489,30.28717-22.982544,45.46521-31.900513,7.560059-4.444946,16.739014-9.106995,25.713013-7.599976Z" fill="#030402"/><path d="M71.144897,148.130127c14.007935,2.219971,27.37793,16.057983,37.335938,25.291992,13.172974,12.214966,25.593018,25.271973,38.786987,37.461975,9.717041,8.977966,20.512085,19.820984,33.212036,24.153992,20.362061,6.947998,37.830078-22.693054,48.185059-36.163025,10.273926-13.365051,26.849121-41.567017,46.811035-36.93103,11.707031,2.718994,11.325928,13.662048,15.676025,22.926025,8.438965,17.972961,31.428955,6.094971,43.491943-.559021,14.923035-8.231079,28.944702-18.117615,43.356079-27.251404v-21.173218c-14.405457,9.385681-28.419678,19.52179-43.384155,27.94165-12.341064,6.944031-34.550049,18.233032-43.415039,.473022-4.561768-9.140015-4.712891-20.388977-16.285889-23.083984-20.100098-4.68396-35.881104,23.26001-45.760986,36.916016-9.937988,13.735046-26.677979,43.251038-47.142944,36.072021-12.723999-4.46405-23.619995-15.200012-33.510986-24.116028-13.458984-12.130981-26.200073-25.088989-39.639038-37.242981-10.002075-9.044983-23.6521-23.052002-37.571045-25.283997-8.936035-1.432983-18.125,3.244995-25.666992,7.627014-15.235046,8.85199-29.528381,23.001282-45.622925,31.570435v21.792297c16.124695-8.901428,30.447876-23.884949,45.453857-32.867737,7.63208-4.567993,16.618042-8.992004,25.69104-7.554016Z" fill="#030402"/><path d="M43.32312,190.276855c7.559937-5.278992,16.621948-10.667969,26.105957-9.107971,13.450928,2.212952,25.637939,16.120972,34.616943,25.492981,11.797974,12.315002,22.730957,25.485046,34.552979,37.775024,8.703979,9.049011,18.547974,20.065979,30.584961,24.348999,9.98999,3.554016,18.690063-2.27301,26.390015-8.427002,10.229004-8.169983,19.199951-18.001038,28.266968-27.463013s18.043945-19.296997,28.266968-27.461975c7.180176-5.731995,15.580078-11.380005,25.080078-9.211975,11.479004,2.621033,10.503906,12.837036,14.450928,21.911011,7.414062,17.052002,30.610107,6.158997,42.100098,.669006,14.760315-7.053284,29.239075-16.900452,44.260986-24.988037v-24.293396c-14.827209,9.1026-29.097046,19.787598-43.547852,27.460327-11.908936,6.322998-35.010986,18.086975-43.175049,.309998-4.233887-9.218018-3.666016-19.924988-15.312988-22.625-19.946045-4.627014-37.800049,23.751038-48.636108,36.851013-10.891968,13.164001-29.736938,43.050964-50.041992,36.09198-12.528931-4.293945-23.064941-15.188965-32.491943-24.20697-12.772095-12.217041-24.723999-25.317017-37.472046-37.559021-9.721924-9.335999-22.721924-23.107971-36.621948-25.343994-9.215942-1.481995-18.159912,3.083984-25.80896,7.890015-14.688232,9.229065-28.900391,24.883728-44.891113,34.401062v23.642212c2.628357-2.01532,5.188782-4.134216,7.70813-6.240295,11.874023-9.927002,22.93396-21.060974,35.61499-29.914978Z" fill="#030402"/><path d="M39.841675,226.406982c7.229004-6.033997,16.78894-13.747986,26.740967-12.078003,12.320068,2.066956,22.9021,16.692993,30.144043,25.823975,9.898071,12.473999,18.827026,25.744019,28.753052,38.200012,7.13501,8.955017,15.489014,20.388,26.435059,24.655029,10.122925,3.945984,20.835938-2.868958,29.141968-8.260986,12.413086-8.057007,23.800049-17.778992,35.258057-27.177002s22.851074-19.122986,35.258057-27.177002c8.172974-5.305054,18.145874-11.335999,28.214966-9.150024,11.234131,2.437988,9.178955,11.737976,12.674072,20.437988,6.081055,15.142029,28.780029,6.890015,39.539062,3.111023,15.386353-5.404785,30.438843-13.42395,45.999023-19.145569v-26.531555c-15.206177,7.310974-29.875366,16.560913-44.857422,23.090027-11.389893,4.965027-34.101807,14.825989-41.221924-1.5-3.894043-8.92804-2.35791-18.814026-13.822998-21.390015-9.680908-2.175964-18.61792,3.623047-26.146973,9.189026-10.990967,8.127014-20.825073,17.911987-30.75,27.361023s-19.750977,19.230042-30.750977,27.361023c-7.927002,5.859985-17.30896,12.070984-27.334961,8.370972-11.655029-4.302002-20.969116-15.411987-29.133057-24.455994-11.146973-12.346985-21.364014-25.557007-32.485962-37.927979-8.38501-9.327942-19.995117-23.426941-33.060059-25.607971-9.654907-1.612-18.878906,4.55304-26.329956,10.124023-12.957031,9.689026-24.18103,21.665039-36.281006,32.429016-1.909058,1.698486-3.846558,3.417542-5.824707,5.099731v24.437195c.790955-.774292,1.577454-1.54657,2.355713-2.310974,12.500977-12.276978,24.046997-25.76001,37.485962-36.97699Z" fill="#030402"/><path d="M64.340332,247.653931c11.490967,2.419983,20.115967,18.442017,25.699951,27.466003,7.354004,11.884033,13.859985,24.30896,21.23999,36.177002,5.496948,8.839966,13.479004,23.080933,24.052979,26.510986,9.106934,2.953979,19.461914-2.763062,27.44397-6.863037,15.944946-8.189941,30.835938-18.631958,45.751953-28.637939,14.000977-9.392944,27.940918-19.078918,42.771973-27.02594,9.080078-4.86499,19.555054-10.593994,30.155029-9.093994,11.429932,1.612,8.948975,9.993958,11.749023,18.633972,4.381104,13.511963,26.532959,8.080933,36.37207,6.224976,16.224731-3.061462,32.14801-8.418457,48.422729-11.133911v-27.819214c-15.984192,4.67865-31.492554,11.909119-47.350708,16.496216-10.523926,3.045959-32.657959,9.901001-37.988037-4.762024-3.217041-8.850037-1.223145-17.840027-12.863037-19.557007-10.10498-1.491028-19.73999,4.117981-28.168945,9.143982-13.421021,8.001038-25.838989,17.757019-38.32605,27.207031-13.297974,10.062988-26.567017,20.588013-41.021973,28.832031-7.655029,4.36499-16.970093,9.598999-25.920044,6.948975-11.203979-3.315063-20.392944-17.346069-26.865967-26.300049-8.505005-11.765015-16.187012-24.142029-24.666992-35.924011-6.846924-9.507996-16.391968-24.449036-28.646973-27.249023-11.072021-2.528992-22.229004,8.165039-29.661987,14.934021-12.789062,11.647034-23.916016,25.106995-35.926025,37.583008-.197083,.204712-.395386,.411133-.593262,.617004v23.246643c11.331787-12.952515,22.044189-26.546509,34.258301-38.624695,7.276978-7.195984,18.630005-19.442017,30.082031-17.031006Z" fill="#030402"/><path d="M62.265869,280.734985c10.958984,2.51709,17.911987,18.789062,22.312012,27.717041,5.920044,12.011963,10.895996,24.5,16.843994,36.5,4.346924,8.769043,10.791992,23.205078,20.782959,26.753052,9.229004,3.278931,20.714966-2.977051,29-6.784058,17.812988-8.190063,34.74292-18.5,51.699951-28.400024,15.916016-9.300049,31.7771-18.87207,48.383057-26.800049,9.745972-4.653076,21.044067-10.529053,32.155029-9.029053,11.217896,1.516968,8.121948,9.108032,10.380005,17.5,3.310059,12.305908,25.641113,8.116943,34.653076,7.699951,16.539978-.765991,32.993774-2.691772,49.524048-3.008667v-26.405151c-16.401245,1.628235-32.55304,5.727844-48.939087,7.851685-9.470947,1.228027-31.661133,5.98999-35.561035-6.942993-2.572144-8.527954,.170898-16.579956-11.157104-18.142944-10.853027-1.496948-21.72998,4.285034-31.130005,9.06604-15.589966,7.927002-30.3479,17.571045-45.16394,26.927002-15.784912,9.968994-31.546997,20.359985-48.293945,28.535034-8.131958,3.968018-19.027954,9.934082-28.199951,6.821045-10.277954-3.488037-17.600952-17.833008-22.590942-26.619019-6.773071-11.924927-12.638062-24.375-19.384033-36.314941-5.046021-8.932007-12.980103-25.136963-24.180054-27.578979-11.56604-2.516968-23.207031,10.782959-30.307007,18.083008-11.809753,12.145996-22.20813,25.663269-33.092896,38.692627v21.829346c10.342651-13.084106,20.353394-26.488342,31.657837-38.688965,6.932983-7.481934,18.822021-21.960938,30.608032-19.260986Z" fill="#030402"/><path d="M61.90686,313.885071c10.96106,2.661011,17.500977,18.629028,21.718018,27.718018,5.550049,11.960938,10.113037,24.387939,15.692993,36.334961,4.125,8.830078,10.23999,23.161011,20.187988,26.743042,9.27002,3.338013,20.878052-3.032104,29.232056-6.795044,18.160889-8.182007,35.497925-18.377075,52.866943-28.192017,16.302979-9.213013,32.551025-18.687988,49.48999-26.599976,9.755981-4.557007,21.200073-10.602051,32.290039-9.040039,10.953125,1.542969,8.147095,8.846924,10.524048,17.084961,3.484009,12.063965,25.391968,8.005005,34.400024,7.845947,16.575684-.291687,33.122437-1.295532,49.69104-1.27832v-20.269775c-16.544495-.014771-33.074951,.738831-49.62439,.959473-8.862793,.117065-31.354004,4.407959-34.462891-7.791992-2.129028-8.354004,1.115967-15.737061-10.083984-17.254028-11.128052-1.508057-22.490967,4.43396-32.286011,9.012939-17.015991,7.951904-33.329956,17.480957-49.699951,26.741943-17.43811,9.86499-34.844116,20.118042-53.081055,28.338989-8.320068,3.75-19.880005,10.074951-29.128052,6.786987-9.973999-3.552002-16.083984-17.968018-20.199951-26.800049-5.605957-12.029053-10.189941-24.539062-15.765991-36.582031-4.19397-9.060059-10.744995-25.187988-21.730957-27.76001-11.927979-2.795044-23.828003,11.843994-30.728027,19.505005-11.096985,12.325378-21.016602,25.69873-31.20874,38.826599v20.772888c10.188721-13.168091,20.114929-26.573059,31.21582-38.929443,6.928101-7.713989,18.720093-22.284058,30.69104-19.379028Z" fill="#030402"/><path d="M63.193726,349.972778c9.987061,2.79895,16.713013,14.932983,21.821045,23.480957,7.658081,12.813965,13.988037,26.42395,21.624023,39.250977,5.006104,8.416016,11.100098,19.210083,20.300049,23.134033,9.373047,3.99707,21.113037-2.389893,29.613037-6.54895,15.86499-7.760986,30.81897-17.543945,45.800049-26.965942s29.936035-19.200928,45.800049-26.965942c8.524048-4.172974,18.128052-8.776978,27.791992-7.739014,11.859985,1.274048,11.044922,9.045044,16.459961,17.363037,7.403076,11.370972,27.4729,6.904053,38.281982,5.057007,15.776794-2.694153,31.429688-7.571533,47.314087-9.891602v-13.066833c-16.541382,.477417-32.983887,2.998169-49.530396,4.002625-9.441895,.571045-30.548096,4.347046-34.984985-7.567993-3.029907-8.140015-1.10791-15.432007-11.855957-16.932007-11.039062-1.545044-22.390015,4.403931-32.07605,9.011963-16.390991,7.79895-32.049927,17.214966-47.760986,26.366943-16.744995,9.753052-33.463013,19.891968-51.052979,27.947021-8.328003,3.812988-19.848999,10.089966-29.099976,6.75-9.904907-3.575928-16.335938-17.725952-20.694946-26.453979-5.875977-11.768066-10.787964-24.020996-16.635986-35.800049-4.437012-8.937988-11.351074-24.792969-22.227051-27.427002-11.89502-2.880005-23.724976,11.625977-30.666016,19.267944-11.154602,12.284424-21.153259,25.604431-31.414673,38.686707v21.797668c10.85791-13.459961,21.413269-27.236084,33.342773-39.676514,7.271973-7.581055,18.36792-20.299072,29.850952-17.081055Z" fill="#030402"/><path d="M63.309937,387.364014c10.776978,1.229004,19.60791,12.805908,26.037964,20.777954,9.042969,11.211914,16.955078,23.340942,25.749023,34.756958,6.528076,8.474976,14.366089,19.343994,24.508057,23.437012,9.27002,3.739014,18.668945-.817017,26.875977-5.400024,13.178955-7.359985,25.151978-16.975952,37.171997-26.151978,16.249023-12.404053,39.746948-35.597046,61.916992-32.842041,11.406006,1.416992,15.214966,8.822021,23.083984,15.952026,12.748047,11.551025,31.653076,5.62793,45.800049,.583984,14.335388-5.112732,28.774048-12.637512,43.546021-18.47998v-12.571411c-15.197815,3.635376-30.121887,9.545471-45.066772,13.258545-12.35498,3.069946-32.900146,8.392944-42.200073-3.96106-5.89502-7.827026-7.046997-14.781006-18.055054-16.218994-9.833984-1.285034-19.49292,3.390991-28.073975,7.849976-14.540039,7.557007-28.165039,17.026978-41.800049,26.156982s-27.264038,18.602905-41.800049,26.157959c-8.663086,4.502075-20.322998,10.775024-30.077026,6.546021-9.196045-3.987061-15.722046-14.755981-21.071045-22.880005-7.503052-11.394043-13.986084-23.465942-21.373047-34.937988-5.758911-8.94397-13.432983-22.161011-24.245972-25.369995-11.970947-3.553955-24.461914,10.515991-31.870972,18.227051-11.478577,11.944397-21.780396,25.036865-32.365967,37.839233v22.535095c10.24707-11.818054,20.184265-23.939697,31.092896-35.112366,7.906982-8.098999,19.746094-21.574951,32.217041-20.152954Z" fill="#030402"/><path d="M35.057739,442.072937c8.305054-7.627075,18.989014-17.754028,31.050049-16.237061,11.108032,1.397095,20.989014,11.084106,28.879028,18.529053,11.820068,11.151001,22.492065,23.532104,34.269043,34.732056,7.687988,7.309082,16.722046,16.121094,27.171997,18.628052,19.226929,4.611938,36.77002-18.385986,48.635986-30.519043,12.785034-13.067993,28.239014-32.937988,48.192017-31,12.599976,1.223022,20.910034,8.854004,31.483032,15.015991,18.271973,10.647949,35.51709,4.235962,53.217041-4.675049,13.631409-6.860962,26.762451-14.733582,40.044067-22.28833v-16.135498c-15.030029,7.183105-29.695923,15.778931-44.290405,21.71582-15.201904,6.18396-32.785889,11.333984-46.99292,.234009-8.713013-6.809082-14.588989-14.162109-26.19397-15.32605-21.312012-2.138062-41.171021,19.405029-56.333984,32.192993-9.980957,8.417969-19.937012,17.138916-30.916016,24.16394-7.595947,4.859985-16.588989,9.890015-25.777954,7.531982-10.25293-2.631958-18.672974-12.506958-25.55896-20.266968-9.530029-10.739014-18.07605-22.362061-27.46106-33.232056-7.339966-8.5-16.300049-19.500977-27.400024-22.68103-12.985962-3.721924-24.901001,8.765991-33.485962,17.050049-11.880005,11.464172-22.587952,24.170776-33.588745,36.545471v22.50354c11.513611-12.336182,22.65979-25.095764,35.057739-36.481873Z" fill="#030402"/><path d="M33.442871,480.754822c9.427002-8.43103,21.52002-19.776978,35.02002-17.651001,11.375,1.791016,21.744995,9.930054,30.753052,16.822998,12.947021,9.907959,25.035034,20.954956,37.900024,30.973999,8.738037,6.808105,18.520996,14.633057,29.321045,17.508057,19.213013,5.114014,30.299072-14.680908,39.723022-28.67395,9.3479-13.880005,19.005005-31.072021,37.42395-29.530029,14.069092,1.179077,25.607056,8.604004,38.269043,14.228027,6.851074,3.042969,14.203979,5.405029,21.71106,5.672974,13.285889,.471069,25.819092-7.60791,36.968994-14.199951,12.775208-7.552917,25.103882-15.879883,37.466919-24.140442v-17.637207c-12.375122,7.589905-24.661499,15.346863-37.358276,22.343445-19.182861,10.567993-36.853027,17.781006-57.182983,7.239014-11.692993-6.061035-21.52002-13.772949-35.093018-14.760986-18.779053-1.366943-31.657104,17.38501-42.82605,30.442017-10.479004,12.249023-24.878052,33.544067-43.155029,30.144043-12.141968-2.263916-23.011963-12.532959-32-20.563965-10.62793-9.495972-20.616943-19.733032-31.293945-29.171997-8.588989-7.593018-18.57605-16.699097-29.93103-19.337036-13.60498-3.159912-25.555908,8.028076-34.990967,16.628052-11.991516,10.930969-22.914917,23.064575-34.168701,34.805542v21.828613c11.049866-11.093811,21.791626-22.5495,33.442871-32.970215Z" fill="#030402"/><path d="M67.33606,497.2901c12.610962,1.125977,25.332031,11.286987,35.364014,18.400024,13.258057,9.398926,25.940063,19.64502,39.27002,28.938965,8.953979,6.242065,18.738037,13.338989,29.354004,16.01001,18.550049,4.666992,27.639038-13.987061,35.128052-28.180054,7.86499-14.907104,15.819946-30.708008,34.475952-28.935059,14.400024,1.369995,27.029053,8.710938,40.300049,13.985962,7.536987,2.995117,15.601074,5.545044,23.749023,5.633057,12.463135,.133911,23.996094-7.343994,34.353027-13.717041,13.235474-8.144287,25.949036-17.168274,38.6698-26.168274v-20.176941c-12.998779,8.978455-25.978333,17.998169-39.495972,26.102295-10.37207,6.218994-21.933105,13.512939-34.259033,13.270996-8.120117-.159058-16.135986-2.775024-23.593018-5.910034-13.03894-5.481079-25.259888-12.739014-39.611938-13.821045-18.093018-1.363892-26.338989,15.189087-34.639038,29.253052-7.875,13.339966-17.138916,32.244995-35.032959,28.900024-12.317993-2.302979-23.787964-11.44397-33.671021-18.824951-11.506958-8.593994-22.526978-17.870972-34.026978-26.470947-10.192993-7.624023-22.691895-17.861938-35.678955-19.313965-11.445068-1.279053-21.337036,6.708008-29.795044,13.708008-13.535461,11.209106-25.670227,24.125916-38.196045,36.523621v20.633118c12.360229-11.991516,24.356201-24.458801,37.603027-35.396851,8.241089-6.803955,18.484985-15.44397,29.733032-14.44397Z" fill="#030402"/><path d="M69.555298,532.262024c11.325928,2.57605,21.887939,9.813965,31.512939,16.171021,11.43689,7.549927,22.463989,15.75,33.871948,23.349976,10.059082,6.700928,21.631104,15.037964,33.680054,17.209961,16.300903,2.937012,26.60791-12.847046,34.965942-24.847046,8.686035-12.473999,18.078979-26.313965,34.515015-25.426025,15.515991,.838013,28.98999,9.965088,42.890015,16.108032,6.895996,3.047974,14.098022,5.589966,21.620972,6.189941,14.167969,1.135986,27.359131-7.572998,38.977051-14.900024,12.439392-7.845459,24.390442-16.485413,36.410767-25.005676v-24.444641c-12.981079,9.200684-25.940308,18.450806-39.489868,26.7146-10.332031,6.301025-21.761963,13.449951-34.105957,13.19397-8.246826-.171997-16.30896-2.869019-23.888916-6.024048-13.379883-5.571045-26.271973-13.37207-40.991943-14.300049-17.578979-1.108032-25.783936,14.5-33.68396,28.281982-7.5,13.088013-16.786987,31.255005-34.199951,27.633057-12.169067-2.530029-23.671997-11.252075-33.728027-18.300049-11.562012-8.101929-22.719971-16.802979-34.276001-24.912964-10.223022-7.177979-23.00708-17.330933-35.723022-18.845947-11.228027-1.337036-21.386108,6.937988-29.800049,13.699951-13.435181,10.797546-25.579346,23.214294-38.112305,35.11145v18.631409c11.576355-10.307678,22.784729-21.105469,34.917358-30.705872,9.67395-7.651978,21.723999-17.52002,34.637939-14.583008Z" fill="#030402"/><path d="M64.571899,567.171814c10.661987,.544922,21.328979,6.751953,30.511963,11.870972,19.746948,11.008057,39.81897,27.874023,62.151978,32.800049,16.474976,3.638062,28.892944-6.743896,40.647949-17.199951,11.192017-9.950073,22.755005-19.635986,38.437012-17.900024,16.177002,1.791016,29.868042,12.249023,44.061035,19.519043,7.463867,3.822998,15.314941,7.115967,23.699951,7.765991,12.103027,.937012,23.095215-5.730957,33.162109-11.907959,14.059143-8.625793,27.23175-18.702332,40.756104-28.184814v-27.169373c-12.838562,9.102173-25.540527,18.448608-38.888916,26.723083-10.300049,6.382935-21.874023,13.670044-34.300049,13.369995-8.365967-.203003-16.485107-3.310059-24.015015-6.838013-13.835083-6.483032-27.251099-15.939941-42.790039-17.23999-16.427979-1.376953-26.621948,10.967041-36.333008,22.884033-9.477051,11.628052-20.531006,25.535034-36.859009,22.255005-10.406006-2.091064-20.220947-8.37207-29.199951-13.96106-12.896973-8.026978-25.222046-17.000977-38.140015-24.991943-9.33606-5.770996-19.879028-12.551025-30.88501-14s-21.942993,6.765991-30.364014,12.978027c-12.637695,9.322144-24.204163,20.099426-36.224976,30.237854v18.056091c11.783752-8.884094,22.907471-19.197571,33.91394-26.666992,8.973999-6.093994,19.490967-12.971069,30.657959-12.400024Z" fill="#030402"/><path d="M94.305908,612.580872c17.670044,8.028076,35.781982,19.940063,55.369995,21.869019,14.87207,1.462036,28.265991-3.713989,41.666016-9.637939,13.260986-5.862061,26.919067-11.416016,41.64502-9.442017,17.001953,2.280029,31.30896,14.498047,45.755005,23.040039,7.99707,4.727905,16.927002,9.387939,26.27002,10.168945,9.770996,.819946,18.561035-3.380005,26.907959-8.280029,13.787842-8.088989,26.322021-18.303955,39.449951-27.448975,2.186218-1.522766,4.393127-3.056458,6.630127-4.550903v-27.747314c-13.80426,9.561646-27.084473,19.974976-41.345459,28.811035-9.937988,6.154053-20.786865,12.438965-32.743896,11.354004-8.723877-.792969-17.011963-4.720947-24.649902-8.892944-14.209961-7.759033-28.015991-18.724976-44.449951-20.599976-15.136963-1.725952-27.395996,6.309082-39.387939,14.732056-12.596924,8.848999-25.552979,17.179932-41.439941,14.340942-20.312988-3.630005-39.01709-17.838013-56.993042-27.420044-9.60498-5.119019-19.977051-10.61499-30.870972-11.974976s-21.061035,3.817993-30.22998,9.317993c-11.879822,7.129333-23.54895,17.261108-35.888916,25.606079v15.347229c12.31311-6.612,24.033447-15.212402,36.067871-21.082214,20.665039-10.079956,37.88501-6.759033,58.238037,2.48999Z" fill="#030402"/><path d="M378,624.030884c-15.356079,8.797119-29.4375,22.371704-43.336914,31.084167-2.768799,1.735107-5.592407,3.412109-8.482056,4.884949h37.169922c4.738953-3.309692,9.596558-6.303833,14.649048-8.604187v-27.364929Z" fill="#030402"/><path d="M232.880005,629.853088c-14.812012-2.625-29.762085,1.951904-43.800049,6.345947-14.337036,4.488037-28.624023,8.156006-43.75,6.769043-19.218018-1.762939-36.968994-12.417969-54.718018-19.406982-19.108032-7.525879-36.427979-9.378906-55.599976-1.035889-11.723999,5.101624-23.112122,12.408813-35.011963,17.79187v15.640869c12.384277-4.01886,24.323364-10.031433,36.799927-13.92981,16.99707-5.310059,33.963989-3.869873,50.790039,1.353027,17.547974,5.447021,34.905029,13.99292,53.442993,14.971924,15.119995,.799072,29.968994-.726074,44.920044-2.906982,14.562012-2.124023,30.399048-5.0271,45.072998-2.36499,6.456177,1.17157,12.494141,3.708435,18.283264,6.918884h39.810059c-3.013916-1.440857-5.943848-3.077087-8.790222-4.772888-15.169189-9.038086-29.718994-22.231934-47.449097-25.374023Z" fill="#030402"/><path d="M35.651001,654.689148c-5.690796,1.531738-11.280701,3.4151-16.853333,5.310852H101.276672c-4.107422-1.292236-8.208374-2.579712-12.319641-3.739807-17.739014-5.00708-35.36499-6.400146-53.30603-1.571045Z" fill="#030402"/></svg>